<?xml version="1.0" encoding="UTF-8" standalone="no"?><svg xmlns="http://www.w3.org/2000/svg" xmlns:xlink="http://www.w3.org/1999/xlink" contentStyleType="text/css" height="296px" preserveAspectRatio="none" style="width:497px;height:296px;background:#FFFFFF;" version="1.1" viewBox="0 0 497 296" width="497px" zoomAndPan="magnify"><defs/><g><!--MD5=[cab00e07ef330a32627ed0e5fa91e923]
class BasePassiveSpell--><g id="elem_BasePassiveSpell"><rect codeLine="1" fill="#F1F1F1" height="65.6094" id="BasePassiveSpell" rx="2.5" ry="2.5" style="stroke:#181818;stroke-width:0.5;" width="144" x="202.8283" y="115"/><ellipse cx="217.8283" cy="131" fill="#ADD1B2" rx="11" ry="11" style="stroke:#181818;stroke-width:1.0;"/><path d="M220.5939,126.875 Q220.7502,126.6563 220.9377,126.5469 Q221.1252,126.4375 221.3439,126.4375 Q221.7189,126.4375 221.9533,126.7031 Q222.1877,126.9531 222.1877,127.5625 L222.1877,129.0156 Q222.1877,129.625 221.9533,129.8906 Q221.7189,130.1563 221.3439,130.1563 Q221.0002,130.1563 220.7971,129.9531 Q220.5939,129.7656 220.4846,129.25 Q220.4377,128.8906 220.2502,128.7031 Q219.9221,128.3281 219.3127,128.1094 Q218.7033,127.8906 218.0783,127.8906 Q217.3127,127.8906 216.6721,128.2188 Q216.0471,128.5469 215.5471,129.2969 Q215.0627,130.0469 215.0627,131.0781 L215.0627,132.1719 Q215.0627,133.4063 215.9533,134.2344 Q216.8439,135.0469 218.4377,135.0469 Q219.3752,135.0469 220.0314,134.7969 Q220.4221,134.6406 220.8439,134.2031 Q221.1096,133.9375 221.2502,133.8594 Q221.4064,133.7813 221.6096,133.7813 Q221.9377,133.7813 222.1877,134.0469 Q222.4533,134.2969 222.4533,134.6406 Q222.4533,134.9844 222.1096,135.3906 Q221.6096,135.9688 220.8127,136.2969 Q219.7346,136.75 218.4377,136.75 Q216.9221,136.75 215.7189,136.125 Q214.7346,135.625 214.0471,134.5625 Q213.3596,133.4844 213.3596,132.2031 L213.3596,131.0469 Q213.3596,129.7188 213.9689,128.5781 Q214.5939,127.4219 215.6877,126.8125 Q216.7814,126.1875 218.0158,126.1875 Q218.7502,126.1875 219.3908,126.3594 Q220.0471,126.5156 220.5939,126.875 Z " fill="#000000"/><text fill="#000000" font-family="sans-serif" font-size="14" lengthAdjust="spacing" textLength="112" x="231.8283" y="136.7285">BasePassiveSpell</text><line style="stroke:#181818;stroke-width:0.5;" x1="203.8283" x2="345.8283" y1="147" y2="147"/><line style="stroke:#181818;stroke-width:0.5;" x1="203.8283" x2="345.8283" y1="155" y2="155"/><ellipse cx="213.8283" cy="169.3047" fill="#84BE84" rx="3" ry="3" style="stroke:#038048;stroke-width:1.0;"/><text fill="#000000" font-family="sans-serif" font-size="14" lengthAdjust="spacing" textLength="93" x="222.8283" y="173.5332">Update() : void</text></g><!--MD5=[83b3cf3d23d77c6f1e1b5291a241bc2a]
class MonoBehaviour--><g id="elem_MonoBehaviour"><rect fill="#F1F1F1" height="48" id="MonoBehaviour" rx="2.5" ry="2.5" style="stroke:#181818;stroke-width:0.5;" width="131" x="209.3283" y="7"/><ellipse cx="224.3283" cy="23" fill="#ADD1B2" rx="11" ry="11" style="stroke:#181818;stroke-width:1.0;"/><path d="M227.0939,18.875 Q227.2502,18.6563 227.4377,18.5469 Q227.6252,18.4375 227.8439,18.4375 Q228.2189,18.4375 228.4533,18.7031 Q228.6877,18.9531 228.6877,19.5625 L228.6877,21.0156 Q228.6877,21.625 228.4533,21.8906 Q228.2189,22.1563 227.8439,22.1563 Q227.5002,22.1563 227.2971,21.9531 Q227.0939,21.7656 226.9846,21.25 Q226.9377,20.8906 226.7502,20.7031 Q226.4221,20.3281 225.8127,20.1094 Q225.2033,19.8906 224.5783,19.8906 Q223.8127,19.8906 223.1721,20.2188 Q222.5471,20.5469 222.0471,21.2969 Q221.5627,22.0469 221.5627,23.0781 L221.5627,24.1719 Q221.5627,25.4063 222.4533,26.2344 Q223.3439,27.0469 224.9377,27.0469 Q225.8752,27.0469 226.5314,26.7969 Q226.9221,26.6406 227.3439,26.2031 Q227.6096,25.9375 227.7502,25.8594 Q227.9064,25.7813 228.1096,25.7813 Q228.4377,25.7813 228.6877,26.0469 Q228.9533,26.2969 228.9533,26.6406 Q228.9533,26.9844 228.6096,27.3906 Q228.1096,27.9688 227.3127,28.2969 Q226.2346,28.75 224.9377,28.75 Q223.4221,28.75 222.2189,28.125 Q221.2346,27.625 220.5471,26.5625 Q219.8596,25.4844 219.8596,24.2031 L219.8596,23.0469 Q219.8596,21.7188 220.4689,20.5781 Q221.0939,19.4219 222.1877,18.8125 Q223.2814,18.1875 224.5158,18.1875 Q225.2502,18.1875 225.8908,18.3594 Q226.5471,18.5156 227.0939,18.875 Z " fill="#000000"/><text fill="#000000" font-family="sans-serif" font-size="14" lengthAdjust="spacing" textLength="99" x="238.3283" y="28.7285">MonoBehaviour</text><line style="stroke:#181818;stroke-width:0.5;" x1="210.3283" x2="339.3283" y1="39" y2="39"/><line style="stroke:#181818;stroke-width:0.5;" x1="210.3283" x2="339.3283" y1="47" y2="47"/></g><!--MD5=[4fbe32e818a22838feaa7120d0a23311]
class SpellScriptableObject--><g id="elem_SpellScriptableObject"><rect fill="#F1F1F1" height="48" id="SpellScriptableObject" rx="2.5" ry="2.5" style="stroke:#181818;stroke-width:0.5;" width="167" x="17.3283" y="241"/><ellipse cx="32.3283" cy="257" fill="#ADD1B2" rx="11" ry="11" style="stroke:#181818;stroke-width:1.0;"/><path d="M35.0939,252.875 Q35.2502,252.6563 35.4377,252.5469 Q35.6252,252.4375 35.8439,252.4375 Q36.2189,252.4375 36.4533,252.7031 Q36.6877,252.9531 36.6877,253.5625 L36.6877,255.0156 Q36.6877,255.625 36.4533,255.8906 Q36.2189,256.1563 35.8439,256.1563 Q35.5002,256.1563 35.2971,255.9531 Q35.0939,255.7656 34.9846,255.25 Q34.9377,254.8906 34.7502,254.7031 Q34.4221,254.3281 33.8127,254.1094 Q33.2033,253.8906 32.5783,253.8906 Q31.8127,253.8906 31.1721,254.2188 Q30.5471,254.5469 30.0471,255.2969 Q29.5627,256.0469 29.5627,257.0781 L29.5627,258.1719 Q29.5627,259.4063 30.4533,260.2344 Q31.3439,261.0469 32.9377,261.0469 Q33.8752,261.0469 34.5314,260.7969 Q34.9221,260.6406 35.3439,260.2031 Q35.6096,259.9375 35.7502,259.8594 Q35.9064,259.7813 36.1096,259.7813 Q36.4377,259.7813 36.6877,260.0469 Q36.9533,260.2969 36.9533,260.6406 Q36.9533,260.9844 36.6096,261.3906 Q36.1096,261.9688 35.3127,262.2969 Q34.2346,262.75 32.9377,262.75 Q31.4221,262.75 30.2189,262.125 Q29.2346,261.625 28.5471,260.5625 Q27.8596,259.4844 27.8596,258.2031 L27.8596,257.0469 Q27.8596,255.7188 28.4689,254.5781 Q29.0939,253.4219 30.1877,252.8125 Q31.2814,252.1875 32.5158,252.1875 Q33.2502,252.1875 33.8908,252.3594 Q34.5471,252.5156 35.0939,252.875 Z " fill="#000000"/><text fill="#000000" font-family="sans-serif" font-size="14" lengthAdjust="spacing" textLength="135" x="46.3283" y="262.7285">SpellScriptableObject</text><line style="stroke:#181818;stroke-width:0.5;" x1="18.3283" x2="183.3283" y1="273" y2="273"/><line style="stroke:#181818;stroke-width:0.5;" x1="18.3283" x2="183.3283" y1="281" y2="281"/></g><!--MD5=[064f7a74fee85463ec1a30143664ee17]
class GameObject--><g id="elem_GameObject"><rect fill="#F1F1F1" height="48" id="GameObject" rx="2.5" ry="2.5" style="stroke:#181818;stroke-width:0.5;" width="111" x="219.3283" y="241"/><ellipse cx="234.3283" cy="257" fill="#ADD1B2" rx="11" ry="11" style="stroke:#181818;stroke-width:1.0;"/><path d="M237.0939,252.875 Q237.2502,252.6563 237.4377,252.5469 Q237.6252,252.4375 237.8439,252.4375 Q238.2189,252.4375 238.4533,252.7031 Q238.6877,252.9531 238.6877,253.5625 L238.6877,255.0156 Q238.6877,255.625 238.4533,255.8906 Q238.2189,256.1563 237.8439,256.1563 Q237.5002,256.1563 237.2971,255.9531 Q237.0939,255.7656 236.9846,255.25 Q236.9377,254.8906 236.7502,254.7031 Q236.4221,254.3281 235.8127,254.1094 Q235.2033,253.8906 234.5783,253.8906 Q233.8127,253.8906 233.1721,254.2188 Q232.5471,254.5469 232.0471,255.2969 Q231.5627,256.0469 231.5627,257.0781 L231.5627,258.1719 Q231.5627,259.4063 232.4533,260.2344 Q233.3439,261.0469 234.9377,261.0469 Q235.8752,261.0469 236.5314,260.7969 Q236.9221,260.6406 237.3439,260.2031 Q237.6096,259.9375 237.7502,259.8594 Q237.9064,259.7813 238.1096,259.7813 Q238.4377,259.7813 238.6877,260.0469 Q238.9533,260.2969 238.9533,260.6406 Q238.9533,260.9844 238.6096,261.3906 Q238.1096,261.9688 237.3127,262.2969 Q236.2346,262.75 234.9377,262.75 Q233.4221,262.75 232.2189,262.125 Q231.2346,261.625 230.5471,260.5625 Q229.8596,259.4844 229.8596,258.2031 L229.8596,257.0469 Q229.8596,255.7188 230.4689,254.5781 Q231.0939,253.4219 232.1877,252.8125 Q233.2814,252.1875 234.5158,252.1875 Q235.2502,252.1875 235.8908,252.3594 Q236.5471,252.5156 237.0939,252.875 Z " fill="#000000"/><text fill="#000000" font-family="sans-serif" font-size="14" lengthAdjust="spacing" textLength="79" x="248.3283" y="262.7285">GameObject</text><line style="stroke:#181818;stroke-width:0.5;" x1="220.3283" x2="329.3283" y1="273" y2="273"/><line style="stroke:#181818;stroke-width:0.5;" x1="220.3283" x2="329.3283" y1="281" y2="281"/></g><!--MD5=[43cd32d58833b11a70345b65ecd6e961]
class SpellCooldown--><g id="elem_SpellCooldown"><rect fill="#F1F1F1" height="48" id="SpellCooldown" rx="2.5" ry="2.5" style="stroke:#181818;stroke-width:0.5;" width="125" x="365.3283" y="241"/><ellipse cx="380.3283" cy="257" fill="#ADD1B2" rx="11" ry="11" style="stroke:#181818;stroke-width:1.0;"/><path d="M383.0939,252.875 Q383.2502,252.6563 383.4377,252.5469 Q383.6252,252.4375 383.8439,252.4375 Q384.2189,252.4375 384.4533,252.7031 Q384.6877,252.9531 384.6877,253.5625 L384.6877,255.0156 Q384.6877,255.625 384.4533,255.8906 Q384.2189,256.1563 383.8439,256.1563 Q383.5002,256.1563 383.2971,255.9531 Q383.0939,255.7656 382.9846,255.25 Q382.9377,254.8906 382.7502,254.7031 Q382.4221,254.3281 381.8127,254.1094 Q381.2033,253.8906 380.5783,253.8906 Q379.8127,253.8906 379.1721,254.2188 Q378.5471,254.5469 378.0471,255.2969 Q377.5627,256.0469 377.5627,257.0781 L377.5627,258.1719 Q377.5627,259.4063 378.4533,260.2344 Q379.3439,261.0469 380.9377,261.0469 Q381.8752,261.0469 382.5314,260.7969 Q382.9221,260.6406 383.3439,260.2031 Q383.6096,259.9375 383.7502,259.8594 Q383.9064,259.7813 384.1096,259.7813 Q384.4377,259.7813 384.6877,260.0469 Q384.9533,260.2969 384.9533,260.6406 Q384.9533,260.9844 384.6096,261.3906 Q384.1096,261.9688 383.3127,262.2969 Q382.2346,262.75 380.9377,262.75 Q379.4221,262.75 378.2189,262.125 Q377.2346,261.625 376.5471,260.5625 Q375.8596,259.4844 375.8596,258.2031 L375.8596,257.0469 Q375.8596,255.7188 376.4689,254.5781 Q377.0939,253.4219 378.1877,252.8125 Q379.2814,252.1875 380.5158,252.1875 Q381.2502,252.1875 381.8908,252.3594 Q382.5471,252.5156 383.0939,252.875 Z " fill="#000000"/><text fill="#000000" font-family="sans-serif" font-size="14" lengthAdjust="spacing" textLength="93" x="394.3283" y="262.7285">SpellCooldown</text><line style="stroke:#181818;stroke-width:0.5;" x1="366.3283" x2="489.3283" y1="273" y2="273"/><line style="stroke:#181818;stroke-width:0.5;" x1="366.3283" x2="489.3283" y1="281" y2="281"/></g><!--MD5=[210eb7dc15a2a488bee5f2f4ec8ad356]
reverse link MonoBehaviour to BasePassiveSpell--><g id="link_MonoBehaviour_BasePassiveSpell"><path codeLine="4" d="M274.8283,75.62 C274.8283,88.56 274.8283,102.51 274.8283,114.61 " fill="none" id="MonoBehaviour-backto-BasePassiveSpell" style="stroke:#181818;stroke-width:1.0;"/><polygon fill="none" points="267.8283,75.27,274.8283,55.27,281.8283,75.27,267.8283,75.27" style="stroke:#181818;stroke-width:1.0;"/></g><!--MD5=[6a6a0f2c80f440df08739e0bb0ade4f1]
link BasePassiveSpell to SpellScriptableObject--><g id="link_BasePassiveSpell_SpellScriptableObject"><path codeLine="5" d="M226.3583,181.03 C199.1683,199 165.6883,221.13 140.1483,238.01 " fill="none" id="BasePassiveSpell-to-SpellScriptableObject" style="stroke:#181818;stroke-width:1.0;"/><polygon fill="#181818" points="135.7983,240.89,145.5121,239.2644,139.9695,238.133,141.1009,232.5904,135.7983,240.89" style="stroke:#181818;stroke-width:1.0;"/><text fill="#000000" font-family="sans-serif" font-size="13" lengthAdjust="spacing" textLength="123" x="6" y="230.202">spellScriptableObject</text></g><!--MD5=[c1a3e7a9ad7c4feac6ccf82482852af9]
link BasePassiveSpell to GameObject--><g id="link_BasePassiveSpell_GameObject"><path codeLine="6" d="M274.8283,181.03 C274.8283,198.11 274.8283,218.94 274.8283,235.46 " fill="none" id="BasePassiveSpell-to-GameObject" style="stroke:#181818;stroke-width:1.0;"/><polygon fill="#181818" points="274.8283,240.89,278.8283,231.89,274.8283,235.89,270.8283,231.89,274.8283,240.89" style="stroke:#181818;stroke-width:1.0;"/><text fill="#000000" font-family="sans-serif" font-size="13" lengthAdjust="spacing" textLength="64" x="202.6283" y="230.202">spellPrefab</text></g><!--MD5=[2698f609344c8ce4bda270b0c046e472]
link BasePassiveSpell to SpellCooldown--><g id="link_BasePassiveSpell_SpellCooldown"><path codeLine="7" d="M317.4483,181.03 C341.2483,198.93 370.5483,220.94 392.9683,237.8 " fill="none" id="BasePassiveSpell-to-SpellCooldown" style="stroke:#181818;stroke-width:1.0;"/><polygon fill="#181818" points="397.0783,240.89,392.2783,232.29,393.0783,237.89,387.4783,238.69,397.0783,240.89" style="stroke:#181818;stroke-width:1.0;"/><text fill="#000000" font-family="sans-serif" font-size="13" lengthAdjust="spacing" textLength="83" x="334.6899" y="230.1393">spellCooldown</text></g><!--MD5=[a6f2f915ac267e3e676da6a9d142a057]
@startuml
class BasePassiveSpell {
    + Update() : void
}
MonoBehaviour <|- - BasePassiveSpell
BasePassiveSpell - -> "spellScriptableObject" SpellScriptableObject
BasePassiveSpell - -> "spellPrefab" GameObject
BasePassiveSpell - -> "spellCooldown" SpellCooldown
@enduml

PlantUML version 1.2022.7(Mon Aug 22 19:01:30 CEST 2022)
(GPL source distribution)
Java Runtime: Java(TM) SE Runtime Environment
JVM: Java HotSpot(TM) 64-Bit Server VM
Default Encoding: UTF-8
Language: en
Country: US
--></g></svg>