<?xml version="1.0" encoding="UTF-8" standalone="no"?><svg xmlns="http://www.w3.org/2000/svg" xmlns:xlink="http://www.w3.org/1999/xlink" contentStyleType="text/css" height="366px" preserveAspectRatio="none" style="width:496px;height:366px;background:#FFFFFF;" version="1.1" viewBox="0 0 496 366" width="496px" zoomAndPan="magnify"><defs/><g><!--MD5=[541bcaec8c492c162032a5ab698c2177]
class BaseAreaSpell--><g id="elem_BaseAreaSpell"><rect codeLine="1" fill="#F1F1F1" height="136.0469" id="BaseAreaSpell" rx="2.5" ry="2.5" style="stroke:#181818;stroke-width:0.5;" width="203" x="178.5717" y="115"/><ellipse cx="229.3217" cy="131" fill="#ADD1B2" rx="11" ry="11" style="stroke:#181818;stroke-width:1.0;"/><path d="M232.0874,126.875 Q232.2436,126.6563 232.4311,126.5469 Q232.6186,126.4375 232.8374,126.4375 Q233.2124,126.4375 233.4467,126.7031 Q233.6811,126.9531 233.6811,127.5625 L233.6811,129.0156 Q233.6811,129.625 233.4467,129.8906 Q233.2124,130.1563 232.8374,130.1563 Q232.4936,130.1563 232.2905,129.9531 Q232.0874,129.7656 231.978,129.25 Q231.9311,128.8906 231.7436,128.7031 Q231.4155,128.3281 230.8061,128.1094 Q230.1967,127.8906 229.5717,127.8906 Q228.8061,127.8906 228.1655,128.2188 Q227.5405,128.5469 227.0405,129.2969 Q226.5561,130.0469 226.5561,131.0781 L226.5561,132.1719 Q226.5561,133.4063 227.4467,134.2344 Q228.3374,135.0469 229.9311,135.0469 Q230.8686,135.0469 231.5249,134.7969 Q231.9155,134.6406 232.3374,134.2031 Q232.603,133.9375 232.7436,133.8594 Q232.8999,133.7813 233.103,133.7813 Q233.4311,133.7813 233.6811,134.0469 Q233.9467,134.2969 233.9467,134.6406 Q233.9467,134.9844 233.603,135.3906 Q233.103,135.9688 232.3061,136.2969 Q231.228,136.75 229.9311,136.75 Q228.4155,136.75 227.2124,136.125 Q226.228,135.625 225.5405,134.5625 Q224.853,133.4844 224.853,132.2031 L224.853,131.0469 Q224.853,129.7188 225.4624,128.5781 Q226.0874,127.4219 227.1811,126.8125 Q228.2749,126.1875 229.5092,126.1875 Q230.2436,126.1875 230.8842,126.3594 Q231.5405,126.5156 232.0874,126.875 Z " fill="#000000"/><text fill="#000000" font-family="sans-serif" font-size="14" lengthAdjust="spacing" textLength="93" x="249.8217" y="136.7285">BaseAreaSpell</text><line style="stroke:#181818;stroke-width:0.5;" x1="179.5717" x2="380.5717" y1="147" y2="147"/><ellipse cx="189.5717" cy="161.3047" fill="none" rx="3" ry="3" style="stroke:#038048;stroke-width:1.0;"/><text fill="#000000" font-family="sans-serif" font-size="14" lengthAdjust="spacing" textLength="177" x="198.5717" y="165.5332">currentCooldownTime : float</text><line style="stroke:#181818;stroke-width:0.5;" x1="179.5717" x2="380.5717" y1="172.6094" y2="172.6094"/><ellipse cx="189.5717" cy="186.9141" fill="#84BE84" rx="3" ry="3" style="stroke:#038048;stroke-width:1.0;"/><text fill="#000000" font-family="sans-serif" font-size="14" lengthAdjust="spacing" textLength="78" x="198.5717" y="191.1426">Start() : void</text><ellipse cx="189.5717" cy="204.5234" fill="#84BE84" rx="3" ry="3" style="stroke:#038048;stroke-width:1.0;"/><text fill="#000000" font-family="sans-serif" font-size="14" lengthAdjust="spacing" textLength="166" x="198.5717" y="208.752">«virtual» CastSpell() : void</text><ellipse cx="189.5717" cy="222.1328" fill="#84BE84" rx="3" ry="3" style="stroke:#038048;stroke-width:1.0;"/><text fill="#000000" font-family="sans-serif" font-size="14" lengthAdjust="spacing" textLength="174" x="198.5717" y="226.3613">«virtual» ResetSpell() : void</text><ellipse cx="189.5717" cy="239.7422" fill="#84BE84" rx="3" ry="3" style="stroke:#038048;stroke-width:1.0;"/><text fill="#000000" font-family="sans-serif" font-size="14" lengthAdjust="spacing" textLength="93" x="198.5717" y="243.9707">Update() : void</text></g><!--MD5=[83b3cf3d23d77c6f1e1b5291a241bc2a]
class MonoBehaviour--><g id="elem_MonoBehaviour"><rect fill="#F1F1F1" height="48" id="MonoBehaviour" rx="2.5" ry="2.5" style="stroke:#181818;stroke-width:0.5;" width="131" x="214.5717" y="7"/><ellipse cx="229.5717" cy="23" fill="#ADD1B2" rx="11" ry="11" style="stroke:#181818;stroke-width:1.0;"/><path d="M232.3374,18.875 Q232.4936,18.6563 232.6811,18.5469 Q232.8686,18.4375 233.0874,18.4375 Q233.4624,18.4375 233.6967,18.7031 Q233.9311,18.9531 233.9311,19.5625 L233.9311,21.0156 Q233.9311,21.625 233.6967,21.8906 Q233.4624,22.1563 233.0874,22.1563 Q232.7436,22.1563 232.5405,21.9531 Q232.3374,21.7656 232.228,21.25 Q232.1811,20.8906 231.9936,20.7031 Q231.6655,20.3281 231.0561,20.1094 Q230.4467,19.8906 229.8217,19.8906 Q229.0561,19.8906 228.4155,20.2188 Q227.7905,20.5469 227.2905,21.2969 Q226.8061,22.0469 226.8061,23.0781 L226.8061,24.1719 Q226.8061,25.4063 227.6967,26.2344 Q228.5874,27.0469 230.1811,27.0469 Q231.1186,27.0469 231.7749,26.7969 Q232.1655,26.6406 232.5874,26.2031 Q232.853,25.9375 232.9936,25.8594 Q233.1499,25.7813 233.353,25.7813 Q233.6811,25.7813 233.9311,26.0469 Q234.1967,26.2969 234.1967,26.6406 Q234.1967,26.9844 233.853,27.3906 Q233.353,27.9688 232.5561,28.2969 Q231.478,28.75 230.1811,28.75 Q228.6655,28.75 227.4624,28.125 Q226.478,27.625 225.7905,26.5625 Q225.103,25.4844 225.103,24.2031 L225.103,23.0469 Q225.103,21.7188 225.7124,20.5781 Q226.3374,19.4219 227.4311,18.8125 Q228.5249,18.1875 229.7592,18.1875 Q230.4936,18.1875 231.1342,18.3594 Q231.7905,18.5156 232.3374,18.875 Z " fill="#000000"/><text fill="#000000" font-family="sans-serif" font-size="14" lengthAdjust="spacing" textLength="99" x="243.5717" y="28.7285">MonoBehaviour</text><line style="stroke:#181818;stroke-width:0.5;" x1="215.5717" x2="344.5717" y1="39" y2="39"/><line style="stroke:#181818;stroke-width:0.5;" x1="215.5717" x2="344.5717" y1="47" y2="47"/></g><!--MD5=[4fbe32e818a22838feaa7120d0a23311]
class SpellScriptableObject--><g id="elem_SpellScriptableObject"><rect fill="#F1F1F1" height="48" id="SpellScriptableObject" rx="2.5" ry="2.5" style="stroke:#181818;stroke-width:0.5;" width="167" x="28.5718" y="311"/><ellipse cx="43.5718" cy="327" fill="#ADD1B2" rx="11" ry="11" style="stroke:#181818;stroke-width:1.0;"/><path d="M46.3374,322.875 Q46.4936,322.6563 46.6811,322.5469 Q46.8686,322.4375 47.0874,322.4375 Q47.4624,322.4375 47.6968,322.7031 Q47.9311,322.9531 47.9311,323.5625 L47.9311,325.0156 Q47.9311,325.625 47.6968,325.8906 Q47.4624,326.1563 47.0874,326.1563 Q46.7436,326.1563 46.5405,325.9531 Q46.3374,325.7656 46.228,325.25 Q46.1811,324.8906 45.9936,324.7031 Q45.6655,324.3281 45.0561,324.1094 Q44.4468,323.8906 43.8218,323.8906 Q43.0561,323.8906 42.4155,324.2188 Q41.7905,324.5469 41.2905,325.2969 Q40.8061,326.0469 40.8061,327.0781 L40.8061,328.1719 Q40.8061,329.4063 41.6968,330.2344 Q42.5874,331.0469 44.1811,331.0469 Q45.1186,331.0469 45.7749,330.7969 Q46.1655,330.6406 46.5874,330.2031 Q46.853,329.9375 46.9936,329.8594 Q47.1499,329.7813 47.353,329.7813 Q47.6811,329.7813 47.9311,330.0469 Q48.1968,330.2969 48.1968,330.6406 Q48.1968,330.9844 47.853,331.3906 Q47.353,331.9688 46.5561,332.2969 Q45.478,332.75 44.1811,332.75 Q42.6655,332.75 41.4624,332.125 Q40.478,331.625 39.7905,330.5625 Q39.103,329.4844 39.103,328.2031 L39.103,327.0469 Q39.103,325.7188 39.7124,324.5781 Q40.3374,323.4219 41.4311,322.8125 Q42.5249,322.1875 43.7593,322.1875 Q44.4936,322.1875 45.1343,322.3594 Q45.7905,322.5156 46.3374,322.875 Z " fill="#000000"/><text fill="#000000" font-family="sans-serif" font-size="14" lengthAdjust="spacing" textLength="135" x="57.5718" y="332.7285">SpellScriptableObject</text><line style="stroke:#181818;stroke-width:0.5;" x1="29.5718" x2="194.5718" y1="343" y2="343"/><line style="stroke:#181818;stroke-width:0.5;" x1="29.5718" x2="194.5718" y1="351" y2="351"/></g><!--MD5=[d0eba365ed810a30ba95fa40319910e0]
class EffectArea--><g id="elem_EffectArea"><rect fill="#F1F1F1" height="48" id="EffectArea" rx="2.5" ry="2.5" style="stroke:#181818;stroke-width:0.5;" width="98" x="231.0717" y="311"/><ellipse cx="246.0717" cy="327" fill="#ADD1B2" rx="11" ry="11" style="stroke:#181818;stroke-width:1.0;"/><path d="M248.8374,322.875 Q248.9936,322.6563 249.1811,322.5469 Q249.3686,322.4375 249.5874,322.4375 Q249.9624,322.4375 250.1967,322.7031 Q250.4311,322.9531 250.4311,323.5625 L250.4311,325.0156 Q250.4311,325.625 250.1967,325.8906 Q249.9624,326.1563 249.5874,326.1563 Q249.2436,326.1563 249.0405,325.9531 Q248.8374,325.7656 248.728,325.25 Q248.6811,324.8906 248.4936,324.7031 Q248.1655,324.3281 247.5561,324.1094 Q246.9467,323.8906 246.3217,323.8906 Q245.5561,323.8906 244.9155,324.2188 Q244.2905,324.5469 243.7905,325.2969 Q243.3061,326.0469 243.3061,327.0781 L243.3061,328.1719 Q243.3061,329.4063 244.1967,330.2344 Q245.0874,331.0469 246.6811,331.0469 Q247.6186,331.0469 248.2749,330.7969 Q248.6655,330.6406 249.0874,330.2031 Q249.353,329.9375 249.4936,329.8594 Q249.6499,329.7813 249.853,329.7813 Q250.1811,329.7813 250.4311,330.0469 Q250.6967,330.2969 250.6967,330.6406 Q250.6967,330.9844 250.353,331.3906 Q249.853,331.9688 249.0561,332.2969 Q247.978,332.75 246.6811,332.75 Q245.1655,332.75 243.9624,332.125 Q242.978,331.625 242.2905,330.5625 Q241.603,329.4844 241.603,328.2031 L241.603,327.0469 Q241.603,325.7188 242.2124,324.5781 Q242.8374,323.4219 243.9311,322.8125 Q245.0249,322.1875 246.2592,322.1875 Q246.9936,322.1875 247.6342,322.3594 Q248.2905,322.5156 248.8374,322.875 Z " fill="#000000"/><text fill="#000000" font-family="sans-serif" font-size="14" lengthAdjust="spacing" textLength="66" x="260.0717" y="332.7285">EffectArea</text><line style="stroke:#181818;stroke-width:0.5;" x1="232.0717" x2="328.0717" y1="343" y2="343"/><line style="stroke:#181818;stroke-width:0.5;" x1="232.0717" x2="328.0717" y1="351" y2="351"/></g><!--MD5=[43cd32d58833b11a70345b65ecd6e961]
class SpellCooldown--><g id="elem_SpellCooldown"><rect fill="#F1F1F1" height="48" id="SpellCooldown" rx="2.5" ry="2.5" style="stroke:#181818;stroke-width:0.5;" width="125" x="364.5718" y="311"/><ellipse cx="379.5718" cy="327" fill="#ADD1B2" rx="11" ry="11" style="stroke:#181818;stroke-width:1.0;"/><path d="M382.3374,322.875 Q382.4936,322.6563 382.6811,322.5469 Q382.8686,322.4375 383.0874,322.4375 Q383.4624,322.4375 383.6968,322.7031 Q383.9311,322.9531 383.9311,323.5625 L383.9311,325.0156 Q383.9311,325.625 383.6968,325.8906 Q383.4624,326.1563 383.0874,326.1563 Q382.7436,326.1563 382.5405,325.9531 Q382.3374,325.7656 382.228,325.25 Q382.1811,324.8906 381.9936,324.7031 Q381.6655,324.3281 381.0561,324.1094 Q380.4468,323.8906 379.8218,323.8906 Q379.0561,323.8906 378.4155,324.2188 Q377.7905,324.5469 377.2905,325.2969 Q376.8061,326.0469 376.8061,327.0781 L376.8061,328.1719 Q376.8061,329.4063 377.6968,330.2344 Q378.5874,331.0469 380.1811,331.0469 Q381.1186,331.0469 381.7749,330.7969 Q382.1655,330.6406 382.5874,330.2031 Q382.853,329.9375 382.9936,329.8594 Q383.1499,329.7813 383.353,329.7813 Q383.6811,329.7813 383.9311,330.0469 Q384.1968,330.2969 384.1968,330.6406 Q384.1968,330.9844 383.853,331.3906 Q383.353,331.9688 382.5561,332.2969 Q381.478,332.75 380.1811,332.75 Q378.6655,332.75 377.4624,332.125 Q376.478,331.625 375.7905,330.5625 Q375.103,329.4844 375.103,328.2031 L375.103,327.0469 Q375.103,325.7188 375.7124,324.5781 Q376.3374,323.4219 377.4311,322.8125 Q378.5249,322.1875 379.7593,322.1875 Q380.4936,322.1875 381.1343,322.3594 Q381.7905,322.5156 382.3374,322.875 Z " fill="#000000"/><text fill="#000000" font-family="sans-serif" font-size="14" lengthAdjust="spacing" textLength="93" x="393.5718" y="332.7285">SpellCooldown</text><line style="stroke:#181818;stroke-width:0.5;" x1="365.5718" x2="488.5718" y1="343" y2="343"/><line style="stroke:#181818;stroke-width:0.5;" x1="365.5718" x2="488.5718" y1="351" y2="351"/></g><!--MD5=[944e194cc26a68f230ed2de29f59b0e3]
reverse link MonoBehaviour to BaseAreaSpell--><g id="link_MonoBehaviour_BaseAreaSpell"><path codeLine="8" d="M280.0718,75.38 C280.0718,87.68 280.0718,101.37 280.0718,114.74 " fill="none" id="MonoBehaviour-backto-BaseAreaSpell" style="stroke:#181818;stroke-width:1.0;"/><polygon fill="none" points="273.0718,75.11,280.0718,55.11,287.0718,75.11,273.0718,75.11" style="stroke:#181818;stroke-width:1.0;"/></g><!--MD5=[1e01fe07d53cc2456665dcb18d68142c]
link BaseAreaSpell to SpellScriptableObject--><g id="link_BaseAreaSpell_SpellScriptableObject"><path codeLine="9" d="M204.9218,251.1 C182.6617,270.97 159.5717,291.59 141.9818,307.29 " fill="none" id="BaseAreaSpell-to-SpellScriptableObject" style="stroke:#181818;stroke-width:1.0;"/><polygon fill="#181818" points="138.0918,310.77,147.4631,307.7404,141.8146,307.4323,142.1227,301.7838,138.0918,310.77" style="stroke:#181818;stroke-width:1.0;"/><text fill="#000000" font-family="sans-serif" font-size="13" lengthAdjust="spacing" textLength="123" x="6" y="300.0512">spellScriptableObject</text></g><!--MD5=[61825fb84ec681663e0d1918089a5a87]
link BaseAreaSpell to EffectArea--><g id="link_BaseAreaSpell_EffectArea"><path codeLine="10" d="M280.0718,251.1 C280.0718,270.31 280.0718,290.21 280.0718,305.69 " fill="none" id="BaseAreaSpell-to-EffectArea" style="stroke:#181818;stroke-width:1.0;"/><polygon fill="#181818" points="280.0718,310.77,284.0718,301.77,280.0718,305.77,276.0718,301.77,280.0718,310.77" style="stroke:#181818;stroke-width:1.0;"/><text fill="#000000" font-family="sans-serif" font-size="13" lengthAdjust="spacing" textLength="58" x="214.6405" y="300.0512">effectArea</text></g><!--MD5=[11a488880a313b0181bb64ed26d09253]
link BaseAreaSpell to SpellCooldown--><g id="link_BaseAreaSpell_SpellCooldown"><path codeLine="11" d="M345.8318,251.1 C365.1418,270.81 385.1718,291.24 400.5118,306.9 " fill="none" id="BaseAreaSpell-to-SpellCooldown" style="stroke:#181818;stroke-width:1.0;"/><polygon fill="#181818" points="404.3118,310.77,400.8692,301.5424,400.8121,307.1989,395.1555,307.1418,404.3118,310.77" style="stroke:#181818;stroke-width:1.0;"/><text fill="#000000" font-family="sans-serif" font-size="13" lengthAdjust="spacing" textLength="83" x="334.5839" y="300.1869">spellCooldown</text></g><!--MD5=[58bff5002304192160683328e864c81c]
@startuml
class BaseAreaSpell {
    + currentCooldownTime : float
    + Start() : void
    + <<virtual>> CastSpell() : void
    + <<virtual>> ResetSpell() : void
    + Update() : void
}
MonoBehaviour <|- - BaseAreaSpell
BaseAreaSpell - -> "spellScriptableObject" SpellScriptableObject
BaseAreaSpell - -> "effectArea" EffectArea
BaseAreaSpell - -> "spellCooldown" SpellCooldown
@enduml

PlantUML version 1.2022.7(Mon Aug 22 19:01:30 CEST 2022)
(GPL source distribution)
Java Runtime: Java(TM) SE Runtime Environment
JVM: Java HotSpot(TM) 64-Bit Server VM
Default Encoding: UTF-8
Language: en
Country: US
--></g></svg>