<?xml version="1.0" encoding="UTF-8" standalone="no"?><svg xmlns="http://www.w3.org/2000/svg" xmlns:xlink="http://www.w3.org/1999/xlink" contentStyleType="text/css" height="348px" preserveAspectRatio="none" style="width:465px;height:348px;background:#FFFFFF;" version="1.1" viewBox="0 0 465 348" width="465px" zoomAndPan="magnify"><defs/><g><!--MD5=[691ba0af4f4e64fa88706c666ee6cb3a]
class BaseSingleSpell--><g id="elem_BaseSingleSpell"><rect codeLine="1" fill="#F1F1F1" height="118.4375" id="BaseSingleSpell" rx="2.5" ry="2.5" style="stroke:#181818;stroke-width:0.5;" width="203" x="163.8029" y="115"/><ellipse cx="210.0529" cy="131" fill="#ADD1B2" rx="11" ry="11" style="stroke:#181818;stroke-width:1.0;"/><path d="M212.8185,126.875 Q212.9748,126.6563 213.1623,126.5469 Q213.3498,126.4375 213.5685,126.4375 Q213.9435,126.4375 214.1779,126.7031 Q214.4123,126.9531 214.4123,127.5625 L214.4123,129.0156 Q214.4123,129.625 214.1779,129.8906 Q213.9435,130.1563 213.5685,130.1563 Q213.2248,130.1563 213.0216,129.9531 Q212.8185,129.7656 212.7091,129.25 Q212.6623,128.8906 212.4748,128.7031 Q212.1466,128.3281 211.5373,128.1094 Q210.9279,127.8906 210.3029,127.8906 Q209.5373,127.8906 208.8966,128.2188 Q208.2716,128.5469 207.7716,129.2969 Q207.2873,130.0469 207.2873,131.0781 L207.2873,132.1719 Q207.2873,133.4063 208.1779,134.2344 Q209.0685,135.0469 210.6623,135.0469 Q211.5998,135.0469 212.256,134.7969 Q212.6466,134.6406 213.0685,134.2031 Q213.3341,133.9375 213.4748,133.8594 Q213.631,133.7813 213.8341,133.7813 Q214.1623,133.7813 214.4123,134.0469 Q214.6779,134.2969 214.6779,134.6406 Q214.6779,134.9844 214.3341,135.3906 Q213.8341,135.9688 213.0373,136.2969 Q211.9591,136.75 210.6623,136.75 Q209.1466,136.75 207.9435,136.125 Q206.9591,135.625 206.2716,134.5625 Q205.5841,133.4844 205.5841,132.2031 L205.5841,131.0469 Q205.5841,129.7188 206.1935,128.5781 Q206.8185,127.4219 207.9123,126.8125 Q209.006,126.1875 210.2404,126.1875 Q210.9748,126.1875 211.6154,126.3594 Q212.2716,126.5156 212.8185,126.875 Z " fill="#000000"/><text fill="#000000" font-family="sans-serif" font-size="14" lengthAdjust="spacing" textLength="102" x="230.5529" y="136.7285">BaseSingleSpell</text><line style="stroke:#181818;stroke-width:0.5;" x1="164.8029" x2="365.8029" y1="147" y2="147"/><ellipse cx="174.8029" cy="161.3047" fill="none" rx="3" ry="3" style="stroke:#038048;stroke-width:1.0;"/><text fill="#000000" font-family="sans-serif" font-size="14" lengthAdjust="spacing" textLength="177" x="183.8029" y="165.5332">currentCooldownTime : float</text><line style="stroke:#181818;stroke-width:0.5;" x1="164.8029" x2="365.8029" y1="172.6094" y2="172.6094"/><ellipse cx="174.8029" cy="186.9141" fill="#84BE84" rx="3" ry="3" style="stroke:#038048;stroke-width:1.0;"/><text fill="#000000" font-family="sans-serif" font-size="14" lengthAdjust="spacing" textLength="78" x="183.8029" y="191.1426">Start() : void</text><ellipse cx="174.8029" cy="204.5234" fill="#84BE84" rx="3" ry="3" style="stroke:#038048;stroke-width:1.0;"/><text fill="#000000" font-family="sans-serif" font-size="14" lengthAdjust="spacing" textLength="93" x="183.8029" y="208.752">Update() : void</text><ellipse cx="174.8029" cy="222.1328" fill="#84BE84" rx="3" ry="3" style="stroke:#038048;stroke-width:1.0;"/><text fill="#000000" font-family="sans-serif" font-size="14" lengthAdjust="spacing" textLength="166" x="183.8029" y="226.3613">«virtual» CastSpell() : void</text></g><!--MD5=[83b3cf3d23d77c6f1e1b5291a241bc2a]
class MonoBehaviour--><g id="elem_MonoBehaviour"><rect fill="#F1F1F1" height="48" id="MonoBehaviour" rx="2.5" ry="2.5" style="stroke:#181818;stroke-width:0.5;" width="131" x="199.8029" y="7"/><ellipse cx="214.8029" cy="23" fill="#ADD1B2" rx="11" ry="11" style="stroke:#181818;stroke-width:1.0;"/><path d="M217.5685,18.875 Q217.7248,18.6563 217.9123,18.5469 Q218.0998,18.4375 218.3185,18.4375 Q218.6935,18.4375 218.9279,18.7031 Q219.1623,18.9531 219.1623,19.5625 L219.1623,21.0156 Q219.1623,21.625 218.9279,21.8906 Q218.6935,22.1563 218.3185,22.1563 Q217.9748,22.1563 217.7716,21.9531 Q217.5685,21.7656 217.4591,21.25 Q217.4123,20.8906 217.2248,20.7031 Q216.8966,20.3281 216.2873,20.1094 Q215.6779,19.8906 215.0529,19.8906 Q214.2873,19.8906 213.6466,20.2188 Q213.0216,20.5469 212.5216,21.2969 Q212.0373,22.0469 212.0373,23.0781 L212.0373,24.1719 Q212.0373,25.4063 212.9279,26.2344 Q213.8185,27.0469 215.4123,27.0469 Q216.3498,27.0469 217.006,26.7969 Q217.3966,26.6406 217.8185,26.2031 Q218.0841,25.9375 218.2248,25.8594 Q218.381,25.7813 218.5841,25.7813 Q218.9123,25.7813 219.1623,26.0469 Q219.4279,26.2969 219.4279,26.6406 Q219.4279,26.9844 219.0841,27.3906 Q218.5841,27.9688 217.7873,28.2969 Q216.7091,28.75 215.4123,28.75 Q213.8966,28.75 212.6935,28.125 Q211.7091,27.625 211.0216,26.5625 Q210.3341,25.4844 210.3341,24.2031 L210.3341,23.0469 Q210.3341,21.7188 210.9435,20.5781 Q211.5685,19.4219 212.6623,18.8125 Q213.756,18.1875 214.9904,18.1875 Q215.7248,18.1875 216.3654,18.3594 Q217.0216,18.5156 217.5685,18.875 Z " fill="#000000"/><text fill="#000000" font-family="sans-serif" font-size="14" lengthAdjust="spacing" textLength="99" x="228.8029" y="28.7285">MonoBehaviour</text><line style="stroke:#181818;stroke-width:0.5;" x1="200.8029" x2="329.8029" y1="39" y2="39"/><line style="stroke:#181818;stroke-width:0.5;" x1="200.8029" x2="329.8029" y1="47" y2="47"/></g><!--MD5=[4fbe32e818a22838feaa7120d0a23311]
class SpellScriptableObject--><g id="elem_SpellScriptableObject"><rect fill="#F1F1F1" height="48" id="SpellScriptableObject" rx="2.5" ry="2.5" style="stroke:#181818;stroke-width:0.5;" width="167" x="29.8029" y="293"/><ellipse cx="44.8029" cy="309" fill="#ADD1B2" rx="11" ry="11" style="stroke:#181818;stroke-width:1.0;"/><path d="M47.5685,304.875 Q47.7248,304.6563 47.9123,304.5469 Q48.0998,304.4375 48.3185,304.4375 Q48.6935,304.4375 48.9279,304.7031 Q49.1623,304.9531 49.1623,305.5625 L49.1623,307.0156 Q49.1623,307.625 48.9279,307.8906 Q48.6935,308.1563 48.3185,308.1563 Q47.9748,308.1563 47.7716,307.9531 Q47.5685,307.7656 47.4591,307.25 Q47.4123,306.8906 47.2248,306.7031 Q46.8966,306.3281 46.2873,306.1094 Q45.6779,305.8906 45.0529,305.8906 Q44.2873,305.8906 43.6466,306.2188 Q43.0216,306.5469 42.5216,307.2969 Q42.0373,308.0469 42.0373,309.0781 L42.0373,310.1719 Q42.0373,311.4063 42.9279,312.2344 Q43.8185,313.0469 45.4123,313.0469 Q46.3498,313.0469 47.006,312.7969 Q47.3966,312.6406 47.8185,312.2031 Q48.0841,311.9375 48.2248,311.8594 Q48.381,311.7813 48.5841,311.7813 Q48.9123,311.7813 49.1623,312.0469 Q49.4279,312.2969 49.4279,312.6406 Q49.4279,312.9844 49.0841,313.3906 Q48.5841,313.9688 47.7873,314.2969 Q46.7091,314.75 45.4123,314.75 Q43.8966,314.75 42.6935,314.125 Q41.7091,313.625 41.0216,312.5625 Q40.3341,311.4844 40.3341,310.2031 L40.3341,309.0469 Q40.3341,307.7188 40.9435,306.5781 Q41.5685,305.4219 42.6623,304.8125 Q43.756,304.1875 44.9904,304.1875 Q45.7248,304.1875 46.3654,304.3594 Q47.0216,304.5156 47.5685,304.875 Z " fill="#000000"/><text fill="#000000" font-family="sans-serif" font-size="14" lengthAdjust="spacing" textLength="135" x="58.8029" y="314.7285">SpellScriptableObject</text><line style="stroke:#181818;stroke-width:0.5;" x1="30.8029" x2="195.8029" y1="325" y2="325"/><line style="stroke:#181818;stroke-width:0.5;" x1="30.8029" x2="195.8029" y1="333" y2="333"/></g><!--MD5=[2824395d61b6e4620487641a86c41e67]
class Bullet--><g id="elem_Bullet"><rect fill="#F1F1F1" height="48" id="Bullet" rx="2.5" ry="2.5" style="stroke:#181818;stroke-width:0.5;" width="67" x="231.8029" y="293"/><ellipse cx="246.8029" cy="309" fill="#ADD1B2" rx="11" ry="11" style="stroke:#181818;stroke-width:1.0;"/><path d="M249.5685,304.875 Q249.7248,304.6563 249.9123,304.5469 Q250.0998,304.4375 250.3185,304.4375 Q250.6935,304.4375 250.9279,304.7031 Q251.1623,304.9531 251.1623,305.5625 L251.1623,307.0156 Q251.1623,307.625 250.9279,307.8906 Q250.6935,308.1563 250.3185,308.1563 Q249.9748,308.1563 249.7716,307.9531 Q249.5685,307.7656 249.4591,307.25 Q249.4123,306.8906 249.2248,306.7031 Q248.8966,306.3281 248.2873,306.1094 Q247.6779,305.8906 247.0529,305.8906 Q246.2873,305.8906 245.6466,306.2188 Q245.0216,306.5469 244.5216,307.2969 Q244.0373,308.0469 244.0373,309.0781 L244.0373,310.1719 Q244.0373,311.4063 244.9279,312.2344 Q245.8185,313.0469 247.4123,313.0469 Q248.3498,313.0469 249.006,312.7969 Q249.3966,312.6406 249.8185,312.2031 Q250.0841,311.9375 250.2248,311.8594 Q250.381,311.7813 250.5841,311.7813 Q250.9123,311.7813 251.1623,312.0469 Q251.4279,312.2969 251.4279,312.6406 Q251.4279,312.9844 251.0841,313.3906 Q250.5841,313.9688 249.7873,314.2969 Q248.7091,314.75 247.4123,314.75 Q245.8966,314.75 244.6935,314.125 Q243.7091,313.625 243.0216,312.5625 Q242.3341,311.4844 242.3341,310.2031 L242.3341,309.0469 Q242.3341,307.7188 242.9435,306.5781 Q243.5685,305.4219 244.6623,304.8125 Q245.756,304.1875 246.9904,304.1875 Q247.7248,304.1875 248.3654,304.3594 Q249.0216,304.5156 249.5685,304.875 Z " fill="#000000"/><text fill="#000000" font-family="sans-serif" font-size="14" lengthAdjust="spacing" textLength="35" x="260.8029" y="314.7285">Bullet</text><line style="stroke:#181818;stroke-width:0.5;" x1="232.8029" x2="297.8029" y1="325" y2="325"/><line style="stroke:#181818;stroke-width:0.5;" x1="232.8029" x2="297.8029" y1="333" y2="333"/></g><!--MD5=[43cd32d58833b11a70345b65ecd6e961]
class SpellCooldown--><g id="elem_SpellCooldown"><rect fill="#F1F1F1" height="48" id="SpellCooldown" rx="2.5" ry="2.5" style="stroke:#181818;stroke-width:0.5;" width="125" x="333.8029" y="293"/><ellipse cx="348.8029" cy="309" fill="#ADD1B2" rx="11" ry="11" style="stroke:#181818;stroke-width:1.0;"/><path d="M351.5685,304.875 Q351.7248,304.6563 351.9123,304.5469 Q352.0998,304.4375 352.3185,304.4375 Q352.6935,304.4375 352.9279,304.7031 Q353.1623,304.9531 353.1623,305.5625 L353.1623,307.0156 Q353.1623,307.625 352.9279,307.8906 Q352.6935,308.1563 352.3185,308.1563 Q351.9748,308.1563 351.7716,307.9531 Q351.5685,307.7656 351.4591,307.25 Q351.4123,306.8906 351.2248,306.7031 Q350.8966,306.3281 350.2873,306.1094 Q349.6779,305.8906 349.0529,305.8906 Q348.2873,305.8906 347.6466,306.2188 Q347.0216,306.5469 346.5216,307.2969 Q346.0373,308.0469 346.0373,309.0781 L346.0373,310.1719 Q346.0373,311.4063 346.9279,312.2344 Q347.8185,313.0469 349.4123,313.0469 Q350.3498,313.0469 351.006,312.7969 Q351.3966,312.6406 351.8185,312.2031 Q352.0841,311.9375 352.2248,311.8594 Q352.381,311.7813 352.5841,311.7813 Q352.9123,311.7813 353.1623,312.0469 Q353.4279,312.2969 353.4279,312.6406 Q353.4279,312.9844 353.0841,313.3906 Q352.5841,313.9688 351.7873,314.2969 Q350.7091,314.75 349.4123,314.75 Q347.8966,314.75 346.6935,314.125 Q345.7091,313.625 345.0216,312.5625 Q344.3341,311.4844 344.3341,310.2031 L344.3341,309.0469 Q344.3341,307.7188 344.9435,306.5781 Q345.5685,305.4219 346.6623,304.8125 Q347.756,304.1875 348.9904,304.1875 Q349.7248,304.1875 350.3654,304.3594 Q351.0216,304.5156 351.5685,304.875 Z " fill="#000000"/><text fill="#000000" font-family="sans-serif" font-size="14" lengthAdjust="spacing" textLength="93" x="362.8029" y="314.7285">SpellCooldown</text><line style="stroke:#181818;stroke-width:0.5;" x1="334.8029" x2="457.8029" y1="325" y2="325"/><line style="stroke:#181818;stroke-width:0.5;" x1="334.8029" x2="457.8029" y1="333" y2="333"/></g><!--MD5=[41ef67de758c57ba80a6125557989d7a]
reverse link MonoBehaviour to BaseSingleSpell--><g id="link_MonoBehaviour_BaseSingleSpell"><path codeLine="7" d="M265.3029,75.33 C265.3029,87.86 265.3029,101.73 265.3029,114.99 " fill="none" id="MonoBehaviour-backto-BaseSingleSpell" style="stroke:#181818;stroke-width:1.0;"/><polygon fill="none" points="258.3029,75.28,265.3029,55.28,272.3029,75.28,258.3029,75.28" style="stroke:#181818;stroke-width:1.0;"/></g><!--MD5=[802adb66638b850d592404fb8e292247]
link BaseSingleSpell to SpellScriptableObject--><g id="link_BaseSingleSpell_SpellScriptableObject"><path codeLine="8" d="M202.6029,233.16 C181.6129,252.63 159.2329,273.39 142.1329,289.26 " fill="none" id="BaseSingleSpell-to-SpellScriptableObject" style="stroke:#181818;stroke-width:1.0;"/><polygon fill="#181818" points="138.3429,292.77,147.6579,289.5715,142.0048,289.3656,142.2108,283.7124,138.3429,292.77" style="stroke:#181818;stroke-width:1.0;"/><text fill="#000000" font-family="sans-serif" font-size="13" lengthAdjust="spacing" textLength="123" x="6" y="282.0512">spellScriptableObject</text></g><!--MD5=[7245255743e34f1fc64caef2387d7c79]
link BaseSingleSpell to Bullet--><g id="link_BaseSingleSpell_Bullet"><path codeLine="9" d="M265.3029,233.16 C265.3029,251.97 265.3029,272 265.3029,287.64 " fill="none" id="BaseSingleSpell-to-Bullet" style="stroke:#181818;stroke-width:1.0;"/><polygon fill="#181818" points="265.3029,292.77,269.3029,283.77,265.3029,287.77,261.3029,283.77,265.3029,292.77" style="stroke:#181818;stroke-width:1.0;"/><text fill="#000000" font-family="sans-serif" font-size="13" lengthAdjust="spacing" textLength="31" x="230.331" y="282.0512">bullet</text></g><!--MD5=[32d96b7da656bb67674c2d9968b5b8c8]
link BaseSingleSpell to SpellCooldown--><g id="link_BaseSingleSpell_SpellCooldown"><path codeLine="10" d="M319.3429,233.16 C337.2729,252.47 356.3929,273.04 371.0829,288.86 " fill="none" id="BaseSingleSpell-to-SpellCooldown" style="stroke:#181818;stroke-width:1.0;"/><polygon fill="#181818" points="374.7229,292.77,371.5425,283.4488,371.3256,289.1015,365.6729,288.8845,374.7229,292.77" style="stroke:#181818;stroke-width:1.0;"/><text fill="#000000" font-family="sans-serif" font-size="13" lengthAdjust="spacing" textLength="83" x="305.1488" y="282.0935">spellCooldown</text></g><!--MD5=[6d4e7d37d416f120733744a5e98d36ab]
@startuml
class BaseSingleSpell {
    + currentCooldownTime : float
    + Start() : void
    + Update() : void
    + <<virtual>> CastSpell() : void
}
MonoBehaviour <|- - BaseSingleSpell
BaseSingleSpell - -> "spellScriptableObject" SpellScriptableObject
BaseSingleSpell - -> "bullet" Bullet
BaseSingleSpell - -> "spellCooldown" SpellCooldown
@enduml

PlantUML version 1.2022.7(Mon Aug 22 19:01:30 CEST 2022)
(GPL source distribution)
Java Runtime: Java(TM) SE Runtime Environment
JVM: Java HotSpot(TM) 64-Bit Server VM
Default Encoding: UTF-8
Language: en
Country: US
--></g></svg>