<?xml version="1.0" encoding="UTF-8" standalone="no"?><svg xmlns="http://www.w3.org/2000/svg" xmlns:xlink="http://www.w3.org/1999/xlink" contentStyleType="text/css" height="384px" preserveAspectRatio="none" style="width:865px;height:384px;background:#FFFFFF;" version="1.1" viewBox="0 0 865 384" width="865px" zoomAndPan="magnify"><defs/><g><!--MD5=[80c532e980642ebbe770e7ed91e479d0]
class Enemy--><g id="elem_Enemy"><rect codeLine="1" fill="#F1F1F1" height="153.6563" id="Enemy" rx="2.5" ry="2.5" style="stroke:#181818;stroke-width:0.5;" width="324" x="267" y="115"/><ellipse cx="403.25" cy="131" fill="#ADD1B2" rx="11" ry="11" style="stroke:#181818;stroke-width:1.0;"/><path d="M406.0156,126.875 Q406.1719,126.6563 406.3594,126.5469 Q406.5469,126.4375 406.7656,126.4375 Q407.1406,126.4375 407.375,126.7031 Q407.6094,126.9531 407.6094,127.5625 L407.6094,129.0156 Q407.6094,129.625 407.375,129.8906 Q407.1406,130.1563 406.7656,130.1563 Q406.4219,130.1563 406.2188,129.9531 Q406.0156,129.7656 405.9063,129.25 Q405.8594,128.8906 405.6719,128.7031 Q405.3438,128.3281 404.7344,128.1094 Q404.125,127.8906 403.5,127.8906 Q402.7344,127.8906 402.0938,128.2188 Q401.4688,128.5469 400.9688,129.2969 Q400.4844,130.0469 400.4844,131.0781 L400.4844,132.1719 Q400.4844,133.4063 401.375,134.2344 Q402.2656,135.0469 403.8594,135.0469 Q404.7969,135.0469 405.4531,134.7969 Q405.8438,134.6406 406.2656,134.2031 Q406.5313,133.9375 406.6719,133.8594 Q406.8281,133.7813 407.0313,133.7813 Q407.3594,133.7813 407.6094,134.0469 Q407.875,134.2969 407.875,134.6406 Q407.875,134.9844 407.5313,135.3906 Q407.0313,135.9688 406.2344,136.2969 Q405.1563,136.75 403.8594,136.75 Q402.3438,136.75 401.1406,136.125 Q400.1563,135.625 399.4688,134.5625 Q398.7813,133.4844 398.7813,132.2031 L398.7813,131.0469 Q398.7813,129.7188 399.3906,128.5781 Q400.0156,127.4219 401.1094,126.8125 Q402.2031,126.1875 403.4375,126.1875 Q404.1719,126.1875 404.8125,126.3594 Q405.4688,126.5156 406.0156,126.875 Z " fill="#000000"/><text fill="#000000" font-family="sans-serif" font-size="14" lengthAdjust="spacing" textLength="43" x="423.75" y="136.7285">Enemy</text><line style="stroke:#181818;stroke-width:0.5;" x1="268" x2="590" y1="147" y2="147"/><line style="stroke:#181818;stroke-width:0.5;" x1="268" x2="590" y1="155" y2="155"/><ellipse cx="278" cy="169.3047" fill="#84BE84" rx="3" ry="3" style="stroke:#038048;stroke-width:1.0;"/><text fill="#000000" font-family="sans-serif" font-size="14" lengthAdjust="spacing" textLength="169" x="287" y="173.5332">«virtual» OnEnable() : void</text><ellipse cx="278" cy="186.9141" fill="#84BE84" rx="3" ry="3" style="stroke:#038048;stroke-width:1.0;"/><text fill="#000000" font-family="sans-serif" font-size="14" lengthAdjust="spacing" textLength="186" x="287" y="191.1426">«override» OnDisable() : void</text><ellipse cx="278" cy="204.5234" fill="#84BE84" rx="3" ry="3" style="stroke:#038048;stroke-width:1.0;"/><text fill="#000000" font-family="sans-serif" font-size="14" lengthAdjust="spacing" textLength="298" x="287" y="208.752">«virtual» SetupAgentFromConfiguration() : void</text><ellipse cx="278" cy="222.1328" fill="#84BE84" rx="3" ry="3" style="stroke:#038048;stroke-width:1.0;"/><text fill="#000000" font-family="sans-serif" font-size="14" lengthAdjust="spacing" textLength="217" x="287" y="226.3613">TakeDamage(Damage:float) : void</text><ellipse cx="278" cy="239.7422" fill="#84BE84" rx="3" ry="3" style="stroke:#038048;stroke-width:1.0;"/><text fill="#000000" font-family="sans-serif" font-size="14" lengthAdjust="spacing" textLength="69" x="287" y="243.9707">Die() : void</text><ellipse cx="278" cy="257.3516" fill="#84BE84" rx="3" ry="3" style="stroke:#038048;stroke-width:1.0;"/><text fill="#000000" font-family="sans-serif" font-size="14" lengthAdjust="spacing" textLength="175" x="287" y="261.5801">GetTransform() : Transform</text></g><!--MD5=[bd4ea845c197dd8cf4f7a3b8a51299b7]
class PoolableObject--><g id="elem_PoolableObject"><rect fill="#F1F1F1" height="48" id="PoolableObject" rx="2.5" ry="2.5" style="stroke:#181818;stroke-width:0.5;" width="128" x="287" y="7"/><ellipse cx="302" cy="23" fill="#ADD1B2" rx="11" ry="11" style="stroke:#181818;stroke-width:1.0;"/><path d="M304.7656,18.875 Q304.9219,18.6563 305.1094,18.5469 Q305.2969,18.4375 305.5156,18.4375 Q305.8906,18.4375 306.125,18.7031 Q306.3594,18.9531 306.3594,19.5625 L306.3594,21.0156 Q306.3594,21.625 306.125,21.8906 Q305.8906,22.1563 305.5156,22.1563 Q305.1719,22.1563 304.9688,21.9531 Q304.7656,21.7656 304.6563,21.25 Q304.6094,20.8906 304.4219,20.7031 Q304.0938,20.3281 303.4844,20.1094 Q302.875,19.8906 302.25,19.8906 Q301.4844,19.8906 300.8438,20.2188 Q300.2188,20.5469 299.7188,21.2969 Q299.2344,22.0469 299.2344,23.0781 L299.2344,24.1719 Q299.2344,25.4063 300.125,26.2344 Q301.0156,27.0469 302.6094,27.0469 Q303.5469,27.0469 304.2031,26.7969 Q304.5938,26.6406 305.0156,26.2031 Q305.2813,25.9375 305.4219,25.8594 Q305.5781,25.7813 305.7813,25.7813 Q306.1094,25.7813 306.3594,26.0469 Q306.625,26.2969 306.625,26.6406 Q306.625,26.9844 306.2813,27.3906 Q305.7813,27.9688 304.9844,28.2969 Q303.9063,28.75 302.6094,28.75 Q301.0938,28.75 299.8906,28.125 Q298.9063,27.625 298.2188,26.5625 Q297.5313,25.4844 297.5313,24.2031 L297.5313,23.0469 Q297.5313,21.7188 298.1406,20.5781 Q298.7656,19.4219 299.8594,18.8125 Q300.9531,18.1875 302.1875,18.1875 Q302.9219,18.1875 303.5625,18.3594 Q304.2188,18.5156 304.7656,18.875 Z " fill="#000000"/><text fill="#000000" font-family="sans-serif" font-size="14" lengthAdjust="spacing" textLength="96" x="316" y="28.7285">PoolableObject</text><line style="stroke:#181818;stroke-width:0.5;" x1="288" x2="414" y1="39" y2="39"/><line style="stroke:#181818;stroke-width:0.5;" x1="288" x2="414" y1="47" y2="47"/></g><!--MD5=[93806844dad1278a5036a4bb1b7e2e68]
class IDamageable--><g id="elem_IDamageable"><rect fill="#F1F1F1" height="48" id="IDamageable" rx="2.5" ry="2.5" style="stroke:#181818;stroke-width:0.5;" width="115" x="450.5" y="7"/><ellipse cx="465.5" cy="23" fill="#ADD1B2" rx="11" ry="11" style="stroke:#181818;stroke-width:1.0;"/><path d="M468.2656,18.875 Q468.4219,18.6563 468.6094,18.5469 Q468.7969,18.4375 469.0156,18.4375 Q469.3906,18.4375 469.625,18.7031 Q469.8594,18.9531 469.8594,19.5625 L469.8594,21.0156 Q469.8594,21.625 469.625,21.8906 Q469.3906,22.1563 469.0156,22.1563 Q468.6719,22.1563 468.4688,21.9531 Q468.2656,21.7656 468.1563,21.25 Q468.1094,20.8906 467.9219,20.7031 Q467.5938,20.3281 466.9844,20.1094 Q466.375,19.8906 465.75,19.8906 Q464.9844,19.8906 464.3438,20.2188 Q463.7188,20.5469 463.2188,21.2969 Q462.7344,22.0469 462.7344,23.0781 L462.7344,24.1719 Q462.7344,25.4063 463.625,26.2344 Q464.5156,27.0469 466.1094,27.0469 Q467.0469,27.0469 467.7031,26.7969 Q468.0938,26.6406 468.5156,26.2031 Q468.7813,25.9375 468.9219,25.8594 Q469.0781,25.7813 469.2813,25.7813 Q469.6094,25.7813 469.8594,26.0469 Q470.125,26.2969 470.125,26.6406 Q470.125,26.9844 469.7813,27.3906 Q469.2813,27.9688 468.4844,28.2969 Q467.4063,28.75 466.1094,28.75 Q464.5938,28.75 463.3906,28.125 Q462.4063,27.625 461.7188,26.5625 Q461.0313,25.4844 461.0313,24.2031 L461.0313,23.0469 Q461.0313,21.7188 461.6406,20.5781 Q462.2656,19.4219 463.3594,18.8125 Q464.4531,18.1875 465.6875,18.1875 Q466.4219,18.1875 467.0625,18.3594 Q467.7188,18.5156 468.2656,18.875 Z " fill="#000000"/><text fill="#000000" font-family="sans-serif" font-size="14" lengthAdjust="spacing" textLength="83" x="479.5" y="28.7285">IDamageable</text><line style="stroke:#181818;stroke-width:0.5;" x1="451.5" x2="564.5" y1="39" y2="39"/><line style="stroke:#181818;stroke-width:0.5;" x1="451.5" x2="564.5" y1="47" y2="47"/></g><!--MD5=[89d437d956e9539a41cf628f30424833]
class EnemyAttackRadius--><g id="elem_EnemyAttackRadius"><rect fill="#F1F1F1" height="48" id="EnemyAttackRadius" rx="2.5" ry="2.5" style="stroke:#181818;stroke-width:0.5;" width="158" x="7" y="329"/><ellipse cx="22" cy="345" fill="#ADD1B2" rx="11" ry="11" style="stroke:#181818;stroke-width:1.0;"/><path d="M24.7656,340.875 Q24.9219,340.6563 25.1094,340.5469 Q25.2969,340.4375 25.5156,340.4375 Q25.8906,340.4375 26.125,340.7031 Q26.3594,340.9531 26.3594,341.5625 L26.3594,343.0156 Q26.3594,343.625 26.125,343.8906 Q25.8906,344.1563 25.5156,344.1563 Q25.1719,344.1563 24.9688,343.9531 Q24.7656,343.7656 24.6563,343.25 Q24.6094,342.8906 24.4219,342.7031 Q24.0938,342.3281 23.4844,342.1094 Q22.875,341.8906 22.25,341.8906 Q21.4844,341.8906 20.8438,342.2188 Q20.2188,342.5469 19.7188,343.2969 Q19.2344,344.0469 19.2344,345.0781 L19.2344,346.1719 Q19.2344,347.4063 20.125,348.2344 Q21.0156,349.0469 22.6094,349.0469 Q23.5469,349.0469 24.2031,348.7969 Q24.5938,348.6406 25.0156,348.2031 Q25.2813,347.9375 25.4219,347.8594 Q25.5781,347.7813 25.7813,347.7813 Q26.1094,347.7813 26.3594,348.0469 Q26.625,348.2969 26.625,348.6406 Q26.625,348.9844 26.2813,349.3906 Q25.7813,349.9688 24.9844,350.2969 Q23.9063,350.75 22.6094,350.75 Q21.0938,350.75 19.8906,350.125 Q18.9063,349.625 18.2188,348.5625 Q17.5313,347.4844 17.5313,346.2031 L17.5313,345.0469 Q17.5313,343.7188 18.1406,342.5781 Q18.7656,341.4219 19.8594,340.8125 Q20.9531,340.1875 22.1875,340.1875 Q22.9219,340.1875 23.5625,340.3594 Q24.2188,340.5156 24.7656,340.875 Z " fill="#000000"/><text fill="#000000" font-family="sans-serif" font-size="14" lengthAdjust="spacing" textLength="126" x="36" y="350.7285">EnemyAttackRadius</text><line style="stroke:#181818;stroke-width:0.5;" x1="8" x2="164" y1="361" y2="361"/><line style="stroke:#181818;stroke-width:0.5;" x1="8" x2="164" y1="369" y2="369"/></g><!--MD5=[2cdd72feb7030aec1304b43c83d03d6b]
class EnemyMovement--><g id="elem_EnemyMovement"><rect fill="#F1F1F1" height="48" id="EnemyMovement" rx="2.5" ry="2.5" style="stroke:#181818;stroke-width:0.5;" width="140" x="200" y="329"/><ellipse cx="215" cy="345" fill="#ADD1B2" rx="11" ry="11" style="stroke:#181818;stroke-width:1.0;"/><path d="M217.7656,340.875 Q217.9219,340.6563 218.1094,340.5469 Q218.2969,340.4375 218.5156,340.4375 Q218.8906,340.4375 219.125,340.7031 Q219.3594,340.9531 219.3594,341.5625 L219.3594,343.0156 Q219.3594,343.625 219.125,343.8906 Q218.8906,344.1563 218.5156,344.1563 Q218.1719,344.1563 217.9688,343.9531 Q217.7656,343.7656 217.6563,343.25 Q217.6094,342.8906 217.4219,342.7031 Q217.0938,342.3281 216.4844,342.1094 Q215.875,341.8906 215.25,341.8906 Q214.4844,341.8906 213.8438,342.2188 Q213.2188,342.5469 212.7188,343.2969 Q212.2344,344.0469 212.2344,345.0781 L212.2344,346.1719 Q212.2344,347.4063 213.125,348.2344 Q214.0156,349.0469 215.6094,349.0469 Q216.5469,349.0469 217.2031,348.7969 Q217.5938,348.6406 218.0156,348.2031 Q218.2813,347.9375 218.4219,347.8594 Q218.5781,347.7813 218.7813,347.7813 Q219.1094,347.7813 219.3594,348.0469 Q219.625,348.2969 219.625,348.6406 Q219.625,348.9844 219.2813,349.3906 Q218.7813,349.9688 217.9844,350.2969 Q216.9063,350.75 215.6094,350.75 Q214.0938,350.75 212.8906,350.125 Q211.9063,349.625 211.2188,348.5625 Q210.5313,347.4844 210.5313,346.2031 L210.5313,345.0469 Q210.5313,343.7188 211.1406,342.5781 Q211.7656,341.4219 212.8594,340.8125 Q213.9531,340.1875 215.1875,340.1875 Q215.9219,340.1875 216.5625,340.3594 Q217.2188,340.5156 217.7656,340.875 Z " fill="#000000"/><text fill="#000000" font-family="sans-serif" font-size="14" lengthAdjust="spacing" textLength="108" x="229" y="350.7285">EnemyMovement</text><line style="stroke:#181818;stroke-width:0.5;" x1="201" x2="339" y1="361" y2="361"/><line style="stroke:#181818;stroke-width:0.5;" x1="201" x2="339" y1="369" y2="369"/></g><!--MD5=[d850bce18726665bc4d99521b17f7f82]
class EnemyStats--><g id="elem_EnemyStats"><rect fill="#F1F1F1" height="48" id="EnemyStats" rx="2.5" ry="2.5" style="stroke:#181818;stroke-width:0.5;" width="107" x="375.5" y="329"/><ellipse cx="390.5" cy="345" fill="#ADD1B2" rx="11" ry="11" style="stroke:#181818;stroke-width:1.0;"/><path d="M393.2656,340.875 Q393.4219,340.6563 393.6094,340.5469 Q393.7969,340.4375 394.0156,340.4375 Q394.3906,340.4375 394.625,340.7031 Q394.8594,340.9531 394.8594,341.5625 L394.8594,343.0156 Q394.8594,343.625 394.625,343.8906 Q394.3906,344.1563 394.0156,344.1563 Q393.6719,344.1563 393.4688,343.9531 Q393.2656,343.7656 393.1563,343.25 Q393.1094,342.8906 392.9219,342.7031 Q392.5938,342.3281 391.9844,342.1094 Q391.375,341.8906 390.75,341.8906 Q389.9844,341.8906 389.3438,342.2188 Q388.7188,342.5469 388.2188,343.2969 Q387.7344,344.0469 387.7344,345.0781 L387.7344,346.1719 Q387.7344,347.4063 388.625,348.2344 Q389.5156,349.0469 391.1094,349.0469 Q392.0469,349.0469 392.7031,348.7969 Q393.0938,348.6406 393.5156,348.2031 Q393.7813,347.9375 393.9219,347.8594 Q394.0781,347.7813 394.2813,347.7813 Q394.6094,347.7813 394.8594,348.0469 Q395.125,348.2969 395.125,348.6406 Q395.125,348.9844 394.7813,349.3906 Q394.2813,349.9688 393.4844,350.2969 Q392.4063,350.75 391.1094,350.75 Q389.5938,350.75 388.3906,350.125 Q387.4063,349.625 386.7188,348.5625 Q386.0313,347.4844 386.0313,346.2031 L386.0313,345.0469 Q386.0313,343.7188 386.6406,342.5781 Q387.2656,341.4219 388.3594,340.8125 Q389.4531,340.1875 390.6875,340.1875 Q391.4219,340.1875 392.0625,340.3594 Q392.7188,340.5156 393.2656,340.875 Z " fill="#000000"/><text fill="#000000" font-family="sans-serif" font-size="14" lengthAdjust="spacing" textLength="75" x="404.5" y="350.7285">EnemyStats</text><line style="stroke:#181818;stroke-width:0.5;" x1="376.5" x2="481.5" y1="361" y2="361"/><line style="stroke:#181818;stroke-width:0.5;" x1="376.5" x2="481.5" y1="369" y2="369"/></g><!--MD5=[b0b8a3aea1abba3bd1890ec7a23daf87]
class NavMeshAgent--><g id="elem_NavMeshAgent"><rect fill="#F1F1F1" height="48" id="NavMeshAgent" rx="2.5" ry="2.5" style="stroke:#181818;stroke-width:0.5;" width="127" x="517.5" y="329"/><ellipse cx="532.5" cy="345" fill="#ADD1B2" rx="11" ry="11" style="stroke:#181818;stroke-width:1.0;"/><path d="M535.2656,340.875 Q535.4219,340.6563 535.6094,340.5469 Q535.7969,340.4375 536.0156,340.4375 Q536.3906,340.4375 536.625,340.7031 Q536.8594,340.9531 536.8594,341.5625 L536.8594,343.0156 Q536.8594,343.625 536.625,343.8906 Q536.3906,344.1563 536.0156,344.1563 Q535.6719,344.1563 535.4688,343.9531 Q535.2656,343.7656 535.1563,343.25 Q535.1094,342.8906 534.9219,342.7031 Q534.5938,342.3281 533.9844,342.1094 Q533.375,341.8906 532.75,341.8906 Q531.9844,341.8906 531.3438,342.2188 Q530.7188,342.5469 530.2188,343.2969 Q529.7344,344.0469 529.7344,345.0781 L529.7344,346.1719 Q529.7344,347.4063 530.625,348.2344 Q531.5156,349.0469 533.1094,349.0469 Q534.0469,349.0469 534.7031,348.7969 Q535.0938,348.6406 535.5156,348.2031 Q535.7813,347.9375 535.9219,347.8594 Q536.0781,347.7813 536.2813,347.7813 Q536.6094,347.7813 536.8594,348.0469 Q537.125,348.2969 537.125,348.6406 Q537.125,348.9844 536.7813,349.3906 Q536.2813,349.9688 535.4844,350.2969 Q534.4063,350.75 533.1094,350.75 Q531.5938,350.75 530.3906,350.125 Q529.4063,349.625 528.7188,348.5625 Q528.0313,347.4844 528.0313,346.2031 L528.0313,345.0469 Q528.0313,343.7188 528.6406,342.5781 Q529.2656,341.4219 530.3594,340.8125 Q531.4531,340.1875 532.6875,340.1875 Q533.4219,340.1875 534.0625,340.3594 Q534.7188,340.5156 535.2656,340.875 Z " fill="#000000"/><text fill="#000000" font-family="sans-serif" font-size="14" lengthAdjust="spacing" textLength="95" x="546.5" y="350.7285">NavMeshAgent</text><line style="stroke:#181818;stroke-width:0.5;" x1="518.5" x2="643.5" y1="361" y2="361"/><line style="stroke:#181818;stroke-width:0.5;" x1="518.5" x2="643.5" y1="369" y2="369"/></g><!--MD5=[3a648135cc400d2a0a1433cd85f20e7d]
class EnemyScriptableObject--><g id="elem_EnemyScriptableObject"><rect fill="#F1F1F1" height="48" id="EnemyScriptableObject" rx="2.5" ry="2.5" style="stroke:#181818;stroke-width:0.5;" width="179" x="679.5" y="329"/><ellipse cx="694.5" cy="345" fill="#ADD1B2" rx="11" ry="11" style="stroke:#181818;stroke-width:1.0;"/><path d="M697.2656,340.875 Q697.4219,340.6563 697.6094,340.5469 Q697.7969,340.4375 698.0156,340.4375 Q698.3906,340.4375 698.625,340.7031 Q698.8594,340.9531 698.8594,341.5625 L698.8594,343.0156 Q698.8594,343.625 698.625,343.8906 Q698.3906,344.1563 698.0156,344.1563 Q697.6719,344.1563 697.4688,343.9531 Q697.2656,343.7656 697.1563,343.25 Q697.1094,342.8906 696.9219,342.7031 Q696.5938,342.3281 695.9844,342.1094 Q695.375,341.8906 694.75,341.8906 Q693.9844,341.8906 693.3438,342.2188 Q692.7188,342.5469 692.2188,343.2969 Q691.7344,344.0469 691.7344,345.0781 L691.7344,346.1719 Q691.7344,347.4063 692.625,348.2344 Q693.5156,349.0469 695.1094,349.0469 Q696.0469,349.0469 696.7031,348.7969 Q697.0938,348.6406 697.5156,348.2031 Q697.7813,347.9375 697.9219,347.8594 Q698.0781,347.7813 698.2813,347.7813 Q698.6094,347.7813 698.8594,348.0469 Q699.125,348.2969 699.125,348.6406 Q699.125,348.9844 698.7813,349.3906 Q698.2813,349.9688 697.4844,350.2969 Q696.4063,350.75 695.1094,350.75 Q693.5938,350.75 692.3906,350.125 Q691.4063,349.625 690.7188,348.5625 Q690.0313,347.4844 690.0313,346.2031 L690.0313,345.0469 Q690.0313,343.7188 690.6406,342.5781 Q691.2656,341.4219 692.3594,340.8125 Q693.4531,340.1875 694.6875,340.1875 Q695.4219,340.1875 696.0625,340.3594 Q696.7188,340.5156 697.2656,340.875 Z " fill="#000000"/><text fill="#000000" font-family="sans-serif" font-size="14" lengthAdjust="spacing" textLength="147" x="708.5" y="350.7285">EnemyScriptableObject</text><line style="stroke:#181818;stroke-width:0.5;" x1="680.5" x2="857.5" y1="361" y2="361"/><line style="stroke:#181818;stroke-width:0.5;" x1="680.5" x2="857.5" y1="369" y2="369"/></g><!--MD5=[2883c8dcb7c6b5eaa28e38d305b3d64e]
reverse link PoolableObject to Enemy--><g id="link_PoolableObject_Enemy"><path codeLine="9" d="M371.3,73.38 C377.52,86.06 384.57,100.43 391.55,114.67 " fill="none" id="PoolableObject-backto-Enemy" style="stroke:#181818;stroke-width:1.0;"/><polygon fill="none" points="364.87,76.16,362.34,55.12,377.43,69.99,364.87,76.16" style="stroke:#181818;stroke-width:1.0;"/></g><!--MD5=[9b53bd3444c6207e665a57f176bde027]
reverse link IDamageable to Enemy--><g id="link_IDamageable_Enemy"><path codeLine="10" d="M487.44,73.38 C481.14,86.06 474,100.43 466.93,114.67 " fill="none" id="IDamageable-backto-Enemy" style="stroke:#181818;stroke-width:1.0;"/><polygon fill="none" points="481.34,69.92,496.51,55.12,493.88,76.15,481.34,69.92" style="stroke:#181818;stroke-width:1.0;"/></g><!--MD5=[1e58e07ba886e1d860dc5a47985dfddc]
link Enemy to EnemyAttackRadius--><g id="link_Enemy_EnemyAttackRadius"><path codeLine="11" d="M266.79,268.19 C221.18,289.34 174.69,310.89 140.28,326.84 " fill="none" id="Enemy-to-EnemyAttackRadius" style="stroke:#181818;stroke-width:1.0;"/><polygon fill="#181818" points="135.72,328.95,145.5678,328.8044,140.2585,326.852,142.211,321.5428,135.72,328.95" style="stroke:#181818;stroke-width:1.0;"/><text fill="#000000" font-family="sans-serif" font-size="13" lengthAdjust="spacing" textLength="76" x="62.7233" y="318.2773">attackRadius</text></g><!--MD5=[5c57b1ec04e7f3d50294862a21264b34]
link Enemy to EnemyMovement--><g id="link_Enemy_EnemyMovement"><path codeLine="12" d="M352.76,269.24 C332.78,289.22 312.52,309.48 297.04,324.96 " fill="none" id="Enemy-to-EnemyMovement" style="stroke:#181818;stroke-width:1.0;"/><polygon fill="#181818" points="293.22,328.78,302.4124,325.2445,296.7555,325.2445,296.7555,319.5876,293.22,328.78" style="stroke:#181818;stroke-width:1.0;"/><text fill="#000000" font-family="sans-serif" font-size="13" lengthAdjust="spacing" textLength="59" x="232.6108" y="318.0638">movement</text></g><!--MD5=[633cb20633e27d1a227a67883f494bb0]
link Enemy to EnemyStats--><g id="link_Enemy_EnemyStats"><path codeLine="13" d="M429,269.24 C429,288.72 429,308.45 429,323.77 " fill="none" id="Enemy-to-EnemyStats" style="stroke:#181818;stroke-width:1.0;"/><polygon fill="#181818" points="429,328.78,433,319.78,429,323.78,425,319.78,429,328.78" style="stroke:#181818;stroke-width:1.0;"/><text fill="#000000" font-family="sans-serif" font-size="13" lengthAdjust="spacing" textLength="72" x="347.775" y="318.0638">EnemyStats</text></g><!--MD5=[463f8ac2b5f02191a18ccd95d338e7e8]
link Enemy to NavMeshAgent--><g id="link_Enemy_NavMeshAgent"><path codeLine="14" d="M501.88,269.24 C520.99,289.22 540.36,309.48 555.15,324.96 " fill="none" id="Enemy-to-NavMeshAgent" style="stroke:#181818;stroke-width:1.0;"/><polygon fill="#181818" points="558.81,328.78,555.4796,319.5113,555.3539,325.1668,549.6984,325.0411,558.81,328.78" style="stroke:#181818;stroke-width:1.0;"/><text fill="#000000" font-family="sans-serif" font-size="13" lengthAdjust="spacing" textLength="32" x="517.0238" y="318.0638">agent</text></g><!--MD5=[28f1c718fc27562a10246a35fe0c45ef]
link Enemy to EnemyScriptableObject--><g id="link_Enemy_EnemyScriptableObject"><path codeLine="15" d="M591.03,268.77 C635.7,289.66 681.1,310.9 714.87,326.69 " fill="none" id="Enemy-to-EnemyScriptableObject" style="stroke:#181818;stroke-width:1.0;"/><polygon fill="#181818" points="719.77,328.98,713.3264,321.5315,715.2449,326.8531,709.9233,328.7716,719.77,328.98" style="stroke:#181818;stroke-width:1.0;"/><text fill="#000000" font-family="sans-serif" font-size="13" lengthAdjust="spacing" textLength="137" x="600.3092" y="318.1275">EnemyScriptableObject</text></g><!--MD5=[d75bd54e6a330c2d2d44228e2b045cd8]
@startuml
class Enemy {
    + <<virtual>> OnEnable() : void
    + <<override>> OnDisable() : void
    + <<virtual>> SetupAgentFromConfiguration() : void
    + TakeDamage(Damage:float) : void
    + Die() : void
    + GetTransform() : Transform
}
PoolableObject <|- - Enemy
IDamageable <|- - Enemy
Enemy - -> "attackRadius" EnemyAttackRadius
Enemy - -> "movement" EnemyMovement
Enemy - -> "EnemyStats" EnemyStats
Enemy - -> "agent" NavMeshAgent
Enemy - -> "EnemyScriptableObject" EnemyScriptableObject
@enduml

PlantUML version 1.2022.7(Mon Aug 22 19:01:30 CEST 2022)
(GPL source distribution)
Java Runtime: Java(TM) SE Runtime Environment
JVM: Java HotSpot(TM) 64-Bit Server VM
Default Encoding: UTF-8
Language: en
Country: US
--></g></svg>