<?xml version="1.0" encoding="UTF-8" standalone="no"?><svg xmlns="http://www.w3.org/2000/svg" xmlns:xlink="http://www.w3.org/1999/xlink" contentStyleType="text/css" height="366px" preserveAspectRatio="none" style="width:370px;height:366px;background:#FFFFFF;" version="1.1" viewBox="0 0 370 366" width="370px" zoomAndPan="magnify"><defs/><g><!--MD5=[2cb47ba637a0d19583e6199456f6ad0b]
class Player--><g id="elem_Player"><rect codeLine="1" fill="#F1F1F1" height="136.0469" id="Player" rx="2.5" ry="2.5" style="stroke:#181818;stroke-width:0.5;" width="243" x="102.3627" y="115"/><ellipse cx="199.6127" cy="131" fill="#ADD1B2" rx="11" ry="11" style="stroke:#181818;stroke-width:1.0;"/><path d="M202.3783,126.875 Q202.5346,126.6563 202.7221,126.5469 Q202.9096,126.4375 203.1283,126.4375 Q203.5033,126.4375 203.7377,126.7031 Q203.9721,126.9531 203.9721,127.5625 L203.9721,129.0156 Q203.9721,129.625 203.7377,129.8906 Q203.5033,130.1563 203.1283,130.1563 Q202.7846,130.1563 202.5814,129.9531 Q202.3783,129.7656 202.2689,129.25 Q202.2221,128.8906 202.0346,128.7031 Q201.7064,128.3281 201.0971,128.1094 Q200.4877,127.8906 199.8627,127.8906 Q199.0971,127.8906 198.4564,128.2188 Q197.8314,128.5469 197.3314,129.2969 Q196.8471,130.0469 196.8471,131.0781 L196.8471,132.1719 Q196.8471,133.4063 197.7377,134.2344 Q198.6283,135.0469 200.2221,135.0469 Q201.1596,135.0469 201.8158,134.7969 Q202.2064,134.6406 202.6283,134.2031 Q202.8939,133.9375 203.0346,133.8594 Q203.1908,133.7813 203.3939,133.7813 Q203.7221,133.7813 203.9721,134.0469 Q204.2377,134.2969 204.2377,134.6406 Q204.2377,134.9844 203.8939,135.3906 Q203.3939,135.9688 202.5971,136.2969 Q201.5189,136.75 200.2221,136.75 Q198.7064,136.75 197.5033,136.125 Q196.5189,135.625 195.8314,134.5625 Q195.1439,133.4844 195.1439,132.2031 L195.1439,131.0469 Q195.1439,129.7188 195.7533,128.5781 Q196.3783,127.4219 197.4721,126.8125 Q198.5658,126.1875 199.8002,126.1875 Q200.5346,126.1875 201.1752,126.3594 Q201.8314,126.5156 202.3783,126.875 Z " fill="#000000"/><text fill="#000000" font-family="sans-serif" font-size="14" lengthAdjust="spacing" textLength="40" x="220.1127" y="136.7285">Player</text><line style="stroke:#181818;stroke-width:0.5;" x1="103.3627" x2="344.3627" y1="147" y2="147"/><line style="stroke:#181818;stroke-width:0.5;" x1="103.3627" x2="344.3627" y1="155" y2="155"/><ellipse cx="113.3627" cy="169.3047" fill="#84BE84" rx="3" ry="3" style="stroke:#038048;stroke-width:1.0;"/><text fill="#000000" font-family="sans-serif" font-size="14" lengthAdjust="spacing" textLength="175" x="122.3627" y="173.5332">GetTransform() : Transform</text><ellipse cx="113.3627" cy="186.9141" fill="#84BE84" rx="3" ry="3" style="stroke:#038048;stroke-width:1.0;"/><text fill="#000000" font-family="sans-serif" font-size="14" lengthAdjust="spacing" textLength="217" x="122.3627" y="191.1426">TakeDamage(Damage:float) : void</text><ellipse cx="113.3627" cy="204.5234" fill="#84BE84" rx="3" ry="3" style="stroke:#038048;stroke-width:1.0;"/><text fill="#000000" font-family="sans-serif" font-size="14" lengthAdjust="spacing" textLength="125" x="122.3627" y="208.752">ResetPlayer() : void</text><ellipse cx="113.3627" cy="222.1328" fill="#84BE84" rx="3" ry="3" style="stroke:#038048;stroke-width:1.0;"/><text fill="#000000" font-family="sans-serif" font-size="14" lengthAdjust="spacing" textLength="89" x="122.3627" y="226.3613">Awake() : void</text><ellipse cx="113.3627" cy="239.7422" fill="#84BE84" rx="3" ry="3" style="stroke:#038048;stroke-width:1.0;"/><text fill="#000000" font-family="sans-serif" font-size="14" lengthAdjust="spacing" textLength="111" x="122.3627" y="243.9707">OnEnable() : void</text></g><!--MD5=[83b3cf3d23d77c6f1e1b5291a241bc2a]
class MonoBehaviour--><g id="elem_MonoBehaviour"><rect fill="#F1F1F1" height="48" id="MonoBehaviour" rx="2.5" ry="2.5" style="stroke:#181818;stroke-width:0.5;" width="131" x="79.3627" y="7"/><ellipse cx="94.3627" cy="23" fill="#ADD1B2" rx="11" ry="11" style="stroke:#181818;stroke-width:1.0;"/><path d="M97.1283,18.875 Q97.2846,18.6563 97.4721,18.5469 Q97.6596,18.4375 97.8783,18.4375 Q98.2533,18.4375 98.4877,18.7031 Q98.7221,18.9531 98.7221,19.5625 L98.7221,21.0156 Q98.7221,21.625 98.4877,21.8906 Q98.2533,22.1563 97.8783,22.1563 Q97.5346,22.1563 97.3314,21.9531 Q97.1283,21.7656 97.0189,21.25 Q96.9721,20.8906 96.7846,20.7031 Q96.4564,20.3281 95.8471,20.1094 Q95.2377,19.8906 94.6127,19.8906 Q93.8471,19.8906 93.2064,20.2188 Q92.5814,20.5469 92.0814,21.2969 Q91.5971,22.0469 91.5971,23.0781 L91.5971,24.1719 Q91.5971,25.4063 92.4877,26.2344 Q93.3783,27.0469 94.9721,27.0469 Q95.9096,27.0469 96.5658,26.7969 Q96.9564,26.6406 97.3783,26.2031 Q97.6439,25.9375 97.7846,25.8594 Q97.9408,25.7813 98.1439,25.7813 Q98.4721,25.7813 98.7221,26.0469 Q98.9877,26.2969 98.9877,26.6406 Q98.9877,26.9844 98.6439,27.3906 Q98.1439,27.9688 97.3471,28.2969 Q96.2689,28.75 94.9721,28.75 Q93.4564,28.75 92.2533,28.125 Q91.2689,27.625 90.5814,26.5625 Q89.8939,25.4844 89.8939,24.2031 L89.8939,23.0469 Q89.8939,21.7188 90.5033,20.5781 Q91.1283,19.4219 92.2221,18.8125 Q93.3158,18.1875 94.5502,18.1875 Q95.2846,18.1875 95.9252,18.3594 Q96.5814,18.5156 97.1283,18.875 Z " fill="#000000"/><text fill="#000000" font-family="sans-serif" font-size="14" lengthAdjust="spacing" textLength="99" x="108.3627" y="28.7285">MonoBehaviour</text><line style="stroke:#181818;stroke-width:0.5;" x1="80.3627" x2="209.3627" y1="39" y2="39"/><line style="stroke:#181818;stroke-width:0.5;" x1="80.3627" x2="209.3627" y1="47" y2="47"/></g><!--MD5=[93806844dad1278a5036a4bb1b7e2e68]
class IDamageable--><g id="elem_IDamageable"><rect fill="#F1F1F1" height="48" id="IDamageable" rx="2.5" ry="2.5" style="stroke:#181818;stroke-width:0.5;" width="115" x="245.3627" y="7"/><ellipse cx="260.3627" cy="23" fill="#ADD1B2" rx="11" ry="11" style="stroke:#181818;stroke-width:1.0;"/><path d="M263.1283,18.875 Q263.2846,18.6563 263.4721,18.5469 Q263.6596,18.4375 263.8783,18.4375 Q264.2533,18.4375 264.4877,18.7031 Q264.7221,18.9531 264.7221,19.5625 L264.7221,21.0156 Q264.7221,21.625 264.4877,21.8906 Q264.2533,22.1563 263.8783,22.1563 Q263.5346,22.1563 263.3314,21.9531 Q263.1283,21.7656 263.0189,21.25 Q262.9721,20.8906 262.7846,20.7031 Q262.4564,20.3281 261.8471,20.1094 Q261.2377,19.8906 260.6127,19.8906 Q259.8471,19.8906 259.2064,20.2188 Q258.5814,20.5469 258.0814,21.2969 Q257.5971,22.0469 257.5971,23.0781 L257.5971,24.1719 Q257.5971,25.4063 258.4877,26.2344 Q259.3783,27.0469 260.9721,27.0469 Q261.9096,27.0469 262.5658,26.7969 Q262.9564,26.6406 263.3783,26.2031 Q263.6439,25.9375 263.7846,25.8594 Q263.9408,25.7813 264.1439,25.7813 Q264.4721,25.7813 264.7221,26.0469 Q264.9877,26.2969 264.9877,26.6406 Q264.9877,26.9844 264.6439,27.3906 Q264.1439,27.9688 263.3471,28.2969 Q262.2689,28.75 260.9721,28.75 Q259.4564,28.75 258.2533,28.125 Q257.2689,27.625 256.5814,26.5625 Q255.8939,25.4844 255.8939,24.2031 L255.8939,23.0469 Q255.8939,21.7188 256.5033,20.5781 Q257.1283,19.4219 258.2221,18.8125 Q259.3158,18.1875 260.5502,18.1875 Q261.2846,18.1875 261.9252,18.3594 Q262.5814,18.5156 263.1283,18.875 Z " fill="#000000"/><text fill="#000000" font-family="sans-serif" font-size="14" lengthAdjust="spacing" textLength="83" x="274.3627" y="28.7285">IDamageable</text><line style="stroke:#181818;stroke-width:0.5;" x1="246.3627" x2="359.3627" y1="39" y2="39"/><line style="stroke:#181818;stroke-width:0.5;" x1="246.3627" x2="359.3627" y1="47" y2="47"/></g><!--MD5=[9163a61f1c05a6ad66d003f6d8a5c81b]
class PlayerScriptableObject--><g id="elem_PlayerScriptableObject"><rect fill="#F1F1F1" height="48" id="PlayerScriptableObject" rx="2.5" ry="2.5" style="stroke:#181818;stroke-width:0.5;" width="176" x="48.8627" y="311"/><ellipse cx="63.8627" cy="327" fill="#ADD1B2" rx="11" ry="11" style="stroke:#181818;stroke-width:1.0;"/><path d="M66.6283,322.875 Q66.7846,322.6563 66.9721,322.5469 Q67.1596,322.4375 67.3783,322.4375 Q67.7533,322.4375 67.9877,322.7031 Q68.2221,322.9531 68.2221,323.5625 L68.2221,325.0156 Q68.2221,325.625 67.9877,325.8906 Q67.7533,326.1563 67.3783,326.1563 Q67.0346,326.1563 66.8314,325.9531 Q66.6283,325.7656 66.5189,325.25 Q66.4721,324.8906 66.2846,324.7031 Q65.9564,324.3281 65.3471,324.1094 Q64.7377,323.8906 64.1127,323.8906 Q63.3471,323.8906 62.7064,324.2188 Q62.0814,324.5469 61.5814,325.2969 Q61.0971,326.0469 61.0971,327.0781 L61.0971,328.1719 Q61.0971,329.4063 61.9877,330.2344 Q62.8783,331.0469 64.4721,331.0469 Q65.4096,331.0469 66.0658,330.7969 Q66.4564,330.6406 66.8783,330.2031 Q67.1439,329.9375 67.2846,329.8594 Q67.4408,329.7813 67.6439,329.7813 Q67.9721,329.7813 68.2221,330.0469 Q68.4877,330.2969 68.4877,330.6406 Q68.4877,330.9844 68.1439,331.3906 Q67.6439,331.9688 66.8471,332.2969 Q65.7689,332.75 64.4721,332.75 Q62.9564,332.75 61.7533,332.125 Q60.7689,331.625 60.0814,330.5625 Q59.3939,329.4844 59.3939,328.2031 L59.3939,327.0469 Q59.3939,325.7188 60.0033,324.5781 Q60.6283,323.4219 61.7221,322.8125 Q62.8158,322.1875 64.0502,322.1875 Q64.7846,322.1875 65.4252,322.3594 Q66.0814,322.5156 66.6283,322.875 Z " fill="#000000"/><text fill="#000000" font-family="sans-serif" font-size="14" lengthAdjust="spacing" textLength="144" x="77.8627" y="332.7285">PlayerScriptableObject</text><line style="stroke:#181818;stroke-width:0.5;" x1="49.8627" x2="223.8627" y1="343" y2="343"/><line style="stroke:#181818;stroke-width:0.5;" x1="49.8627" x2="223.8627" y1="351" y2="351"/></g><!--MD5=[bd978145f136b56fc41cf765348bed16]
class PlayerStats--><g id="elem_PlayerStats"><rect fill="#F1F1F1" height="48" id="PlayerStats" rx="2.5" ry="2.5" style="stroke:#181818;stroke-width:0.5;" width="104" x="259.8627" y="311"/><ellipse cx="274.8627" cy="327" fill="#ADD1B2" rx="11" ry="11" style="stroke:#181818;stroke-width:1.0;"/><path d="M277.6283,322.875 Q277.7846,322.6563 277.9721,322.5469 Q278.1596,322.4375 278.3783,322.4375 Q278.7533,322.4375 278.9877,322.7031 Q279.2221,322.9531 279.2221,323.5625 L279.2221,325.0156 Q279.2221,325.625 278.9877,325.8906 Q278.7533,326.1563 278.3783,326.1563 Q278.0346,326.1563 277.8314,325.9531 Q277.6283,325.7656 277.5189,325.25 Q277.4721,324.8906 277.2846,324.7031 Q276.9564,324.3281 276.3471,324.1094 Q275.7377,323.8906 275.1127,323.8906 Q274.3471,323.8906 273.7064,324.2188 Q273.0814,324.5469 272.5814,325.2969 Q272.0971,326.0469 272.0971,327.0781 L272.0971,328.1719 Q272.0971,329.4063 272.9877,330.2344 Q273.8783,331.0469 275.4721,331.0469 Q276.4096,331.0469 277.0658,330.7969 Q277.4564,330.6406 277.8783,330.2031 Q278.1439,329.9375 278.2846,329.8594 Q278.4408,329.7813 278.6439,329.7813 Q278.9721,329.7813 279.2221,330.0469 Q279.4877,330.2969 279.4877,330.6406 Q279.4877,330.9844 279.1439,331.3906 Q278.6439,331.9688 277.8471,332.2969 Q276.7689,332.75 275.4721,332.75 Q273.9564,332.75 272.7533,332.125 Q271.7689,331.625 271.0814,330.5625 Q270.3939,329.4844 270.3939,328.2031 L270.3939,327.0469 Q270.3939,325.7188 271.0033,324.5781 Q271.6283,323.4219 272.7221,322.8125 Q273.8158,322.1875 275.0502,322.1875 Q275.7846,322.1875 276.4252,322.3594 Q277.0814,322.5156 277.6283,322.875 Z " fill="#000000"/><text fill="#000000" font-family="sans-serif" font-size="14" lengthAdjust="spacing" textLength="72" x="288.8627" y="332.7285">PlayerStats</text><line style="stroke:#181818;stroke-width:0.5;" x1="260.8627" x2="362.8627" y1="343" y2="343"/><line style="stroke:#181818;stroke-width:0.5;" x1="260.8627" x2="362.8627" y1="351" y2="351"/></g><!--MD5=[9e7bca581b594119b79d4e5100fca2bf]
reverse link MonoBehaviour to Player--><g id="link_MonoBehaviour_Player"><path codeLine="8" d="M166.5027,73.09 C173.2827,85.97 180.9527,100.54 188.4327,114.74 " fill="none" id="MonoBehaviour-backto-Player" style="stroke:#181818;stroke-width:1.0;"/><polygon fill="none" points="160.1527,76.07,157.0327,55.11,172.5427,69.54,160.1527,76.07" style="stroke:#181818;stroke-width:1.0;"/></g><!--MD5=[47da5e377ce8408415df57bbd186c543]
reverse link IDamageable to Player--><g id="link_IDamageable_Player"><path codeLine="9" d="M281.2227,73.09 C274.4327,85.97 266.7627,100.54 259.2827,114.74 " fill="none" id="IDamageable-backto-Player" style="stroke:#181818;stroke-width:1.0;"/><polygon fill="none" points="275.1727,69.54,290.6927,55.11,287.5627,76.07,275.1727,69.54" style="stroke:#181818;stroke-width:1.0;"/></g><!--MD5=[6b9c081ce9a3a64a846c63a484d892e0]
link Player to PlayerScriptableObject--><g id="link_Player_PlayerScriptableObject"><path codeLine="10" d="M184.9427,251.1 C173.7027,270.47 162.0627,290.55 153.0427,306.1 " fill="none" id="Player-to-PlayerScriptableObject" style="stroke:#181818;stroke-width:1.0;"/><polygon fill="#181818" points="150.3327,310.77,158.2977,304.977,152.8334,306.4403,151.3701,300.9759,150.3327,310.77" style="stroke:#181818;stroke-width:1.0;"/><text fill="#000000" font-family="sans-serif" font-size="13" lengthAdjust="spacing" textLength="131" x="6" y="300.0512">playerScriptableObject</text></g><!--MD5=[252756da85169acfc1e8974759a4a449]
link Player to PlayerStats--><g id="link_Player_PlayerStats"><path codeLine="11" d="M263.2227,251.1 C274.5927,270.47 286.3727,290.55 295.4927,306.1 " fill="none" id="Player-to-PlayerStats" style="stroke:#181818;stroke-width:1.0;"/><polygon fill="#181818" points="298.2327,310.77,297.1328,300.9827,295.7045,306.4563,290.2309,305.0279,298.2327,310.77" style="stroke:#181818;stroke-width:1.0;"/><text fill="#000000" font-family="sans-serif" font-size="13" lengthAdjust="spacing" textLength="66" x="221.615" y="300.265">playerStats</text></g><!--MD5=[2fa5a65c2587605f705b73bb7ba36029]
@startuml
class Player {
    + GetTransform() : Transform
    + TakeDamage(Damage:float) : void
    + ResetPlayer() : void
    + Awake() : void
    + OnEnable() : void
}
MonoBehaviour <|- - Player
IDamageable <|- - Player
Player - -> "playerScriptableObject" PlayerScriptableObject
Player - -> "playerStats" PlayerStats
@enduml

PlantUML version 1.2022.7(Mon Aug 22 19:01:30 CEST 2022)
(GPL source distribution)
Java Runtime: Java(TM) SE Runtime Environment
JVM: Java HotSpot(TM) 64-Bit Server VM
Default Encoding: UTF-8
Language: en
Country: US
--></g></svg>